<svg xmlns="http://www.w3.org/2000/svg" width="720" height="720" fill="none" viewBox="0 0 720 720"><path fill="#fff" d="M324 19.2912C302.107 6.65192 277.272 -0.00141867 251.992 2.269e-07C226.712 0.00141913 201.878 6.65754 179.986 19.2992C158.094 31.9409 139.917 50.1226 127.28 72.0165C114.644 93.9104 107.994 118.745 108 144.023V207.883C77.364 220.195 52.236 239.345 33.876 264.58C10.512 296.726 0 336.071 0 378.009C0 434.201 28.62 483.698 72 512.713V557.998C71.9978 587.333 79.9621 616.118 95.0428 641.281C110.124 666.444 131.755 687.039 157.627 700.869C183.499 714.699 212.642 721.244 241.944 719.805C271.246 718.367 299.607 708.999 324 692.701V557.998C324 510.013 312.12 479.343 293.04 458.644C273.492 437.513 241.776 421.782 192.096 413.503L203.904 342.515C250.776 350.291 291.816 364.942 324 389.78V19.2912ZM396 19.2912V389.78C428.184 364.942 469.224 350.291 516.096 342.515L527.904 413.503C478.224 421.782 446.508 437.513 426.96 458.68C407.88 479.343 396 510.013 396 557.998V692.701C420.393 708.999 448.754 718.367 478.056 719.805C507.358 721.244 536.501 714.699 562.373 700.869C588.245 687.039 609.876 666.444 624.957 641.281C640.038 616.118 648.002 587.333 648 557.998V512.713C691.38 483.698 720 434.237 720 378.009C720 336.071 709.488 296.726 686.124 264.616C667.764 239.345 642.636 220.195 612 207.883V144.023C612.006 118.745 605.356 93.9104 592.72 72.0165C580.083 50.1226 561.906 31.9409 540.014 19.2992C518.122 6.65754 493.288 0.00141913 468.008 2.269e-07C442.728 -0.00141867 417.893 6.65192 396 19.2912Z"/></svg>