<svg xmlns="http://www.w3.org/2000/svg" width="25" height="25" fill="none" viewBox="0 0 25 25"><g clip-path="url(#clip0_302_102)"><path fill="#fff" d="M22.1266 18.9611C21.7788 19.7647 21.3671 20.5043 20.89 21.1844C20.2398 22.1114 19.7074 22.7531 19.2971 23.1095C18.6611 23.6944 17.9796 23.994 17.2499 24.011C16.726 24.011 16.0942 23.8619 15.3588 23.5595C14.621 23.2586 13.943 23.1095 13.323 23.1095C12.6727 23.1095 11.9754 23.2586 11.2295 23.5595C10.4824 23.8619 9.8806 24.0195 9.42048 24.0351C8.7207 24.0649 8.0232 23.7569 7.32697 23.1095C6.8826 22.7219 6.32679 22.0575 5.66094 21.1162C4.94654 20.1111 4.35921 18.9455 3.89908 17.6166C3.4063 16.1813 3.15927 14.7914 3.15927 13.4458C3.15927 11.9044 3.49234 10.575 4.15946 9.46097C4.68376 8.56613 5.38126 7.86025 6.25424 7.34205C7.12722 6.82386 8.07047 6.5598 9.08628 6.5429C9.64209 6.5429 10.371 6.71483 11.2767 7.05272C12.18 7.39175 12.7599 7.56367 13.0142 7.56367C13.2043 7.56367 13.8486 7.36264 14.9407 6.96186C15.9736 6.59018 16.8453 6.43628 17.5594 6.4969C19.4945 6.65307 20.9482 7.41588 21.9151 8.79016C20.1844 9.83876 19.3283 11.3074 19.3454 13.1915C19.361 14.6591 19.8934 15.8803 20.9397 16.85C21.4139 17.3 21.9435 17.6479 22.5326 17.8949C22.4049 18.2654 22.27 18.6204 22.1266 18.9611V18.9611ZM17.6886 1.49726C17.6886 2.64752 17.2683 3.72151 16.4307 4.71559C15.4199 5.89736 14.1972 6.58024 12.8714 6.47248C12.8545 6.33449 12.8447 6.18925 12.8447 6.03663C12.8447 4.93238 13.3254 3.75062 14.1791 2.78436C14.6053 2.29513 15.1473 1.88834 15.8046 1.56384C16.4605 1.24418 17.0809 1.0674 17.6644 1.03712C17.6815 1.1909 17.6886 1.34468 17.6886 1.49724V1.49726Z"/></g><defs><clipPath id="clip0_302_102"><rect width="24" height="24" fill="#fff" transform="translate(0.845947 0.537109)"/></clipPath></defs></svg>