<svg xmlns="http://www.w3.org/2000/svg" width="25" height="25" fill="none" viewBox="0 0 25 25"><path fill="#4285F4" fill-rule="evenodd" d="M23.8859 12.7985C23.8859 11.983 23.8128 11.1989 23.6769 10.4462H12.8459V14.8946H19.035C18.7684 16.3321 17.9582 17.5501 16.7403 18.3655V21.251H20.4569C22.6314 19.2489 23.8859 16.3007 23.8859 12.7985Z" clip-rule="evenodd"/><path fill="#34A853" fill-rule="evenodd" d="M12.8459 24.0369C15.9509 24.0369 18.5541 23.0072 20.4568 21.2508L16.7402 18.3653C15.7104 19.0553 14.3932 19.4631 12.8459 19.4631C9.85065 19.4631 7.31542 17.4401 6.41111 14.7219H2.56906V17.7015C4.46133 21.4599 8.35043 24.0369 12.8459 24.0369Z" clip-rule="evenodd"/><path fill="#FBBC05" fill-rule="evenodd" d="M6.41117 14.7222C6.18117 14.0322 6.05049 13.2951 6.05049 12.5372C6.05049 11.7792 6.18117 11.0422 6.41117 10.3522V7.37262H2.56913C1.79027 8.92512 1.34595 10.6815 1.34595 12.5372C1.34595 14.3928 1.79027 16.1492 2.56913 17.7017L6.41117 14.7222Z" clip-rule="evenodd"/><path fill="#EA4335" fill-rule="evenodd" d="M12.8459 5.61097C14.5343 5.61097 16.0502 6.1912 17.242 7.33075L20.5404 4.03234C18.5488 2.17665 15.9457 1.03711 12.8459 1.03711C8.35043 1.03711 4.46133 3.61415 2.56906 7.37256L6.41111 10.3521C7.31543 7.63393 9.85065 5.61097 12.8459 5.61097Z" clip-rule="evenodd"/></svg>