<svg xmlns="http://www.w3.org/2000/svg" width="393" height="503" fill="none" viewBox="0 0 393 503"><g clip-path="url(#clip0_10560_14204)"><path stroke="url(#paint0_radial_10560_14204)" stroke-opacity=".7" d="M0.133628 149L0.133614 461.855M49.2419 149L49.2419 461.855M98.3502 149L98.3502 461.855M147.459 149L147.458 461.855M196.567 149V305.428L196.567 461.855M245.675 149L245.675 461.855M294.783 149L294.783 461.855M343.892 149L343.892 461.855M393 149L393 461.855M0 453.108H392.866M0 403.888L392.866 403.888M0 354.667L392.866 354.667M0 305.447L392.866 305.447M0 256.227L392.866 256.227M0 207.007L392.866 207.007M0 157.787L392.866 157.787"/><g filter="url(#filter0_d_10560_14204)"><rect width="240" height="269" x="77" y="173" fill="#000" rx="12"/></g><path fill="#fff" d="M198.061 235.822C198.277 236.134 198.583 236.29 198.979 236.29H199.015C199.351 236.29 199.686 235.93 200.022 235.211C200.358 234.491 200.67 233.508 200.958 232.26C201.246 231.013 201.515 229.76 201.767 228.501C202.019 227.241 202.271 225.88 202.523 224.417C202.559 224.165 202.589 223.979 202.613 223.859C203.476 218.762 204.412 214.037 205.419 209.684C206.426 205.33 207.158 202.5 207.614 201.193C207.686 200.977 207.746 200.797 207.794 200.653C207.842 200.509 207.944 200.245 208.1 199.861C208.255 199.478 208.417 199.142 208.585 198.854C208.753 198.566 208.957 198.272 209.197 197.972C209.437 197.673 209.701 197.433 209.988 197.253C210.276 197.073 210.582 196.989 210.906 197.001C211.577 197.001 212.081 197.211 212.417 197.631C212.753 198.05 212.945 198.53 212.993 199.07C212.993 199.37 212.921 199.609 212.777 199.789C212.633 199.969 212.495 200.083 212.363 200.131C212.231 200.179 212.099 200.197 211.967 200.185C211.715 200.185 211.488 200.095 211.284 199.915C211.08 199.735 210.978 199.49 210.978 199.178C210.978 198.602 211.296 198.26 211.931 198.152L211.877 198.08C211.841 198.044 211.793 198.002 211.733 197.954C211.673 197.906 211.625 197.87 211.589 197.846C211.41 197.727 211.212 197.667 210.996 197.667C210.828 197.667 210.672 197.739 210.528 197.882C210.384 198.026 210.192 198.362 209.952 198.89C209.713 199.418 209.479 200.113 209.251 200.977C209.023 201.84 208.741 203.057 208.405 204.629C208.07 206.2 207.734 208.047 207.398 210.169C206.69 214.187 205.953 217.983 205.185 221.557C204.418 225.131 203.818 227.721 203.386 229.328C202.955 230.935 202.625 232.086 202.397 232.782C201.473 235.576 200.334 236.974 198.979 236.974C198.499 236.974 198.061 236.788 197.666 236.416C197.27 236.044 197.048 235.534 197 234.887C197 234.467 197.114 234.179 197.342 234.023C197.57 233.867 197.798 233.789 198.025 233.789C198.277 233.789 198.505 233.879 198.709 234.059C198.913 234.239 199.015 234.485 199.015 234.797C199.015 235.373 198.697 235.714 198.061 235.822Z"/><path fill="#fff" d="M216.927 216.268C217.011 215.764 217.335 215.183 217.898 214.523C218.462 213.864 219.158 213.528 219.985 213.516C220.405 213.516 220.789 213.624 221.136 213.84C221.484 214.055 221.742 214.325 221.91 214.649C222.414 213.894 223.019 213.516 223.727 213.516C224.171 213.516 224.554 213.648 224.878 213.912C225.202 214.175 225.37 214.529 225.382 214.973C225.382 215.321 225.298 215.603 225.13 215.818C224.962 216.034 224.8 216.166 224.644 216.214C224.489 216.262 224.351 216.286 224.231 216.286C224.003 216.286 223.817 216.22 223.673 216.088C223.529 215.956 223.457 215.782 223.457 215.567C223.457 215.015 223.757 214.637 224.357 214.433C224.225 214.277 223.985 214.199 223.637 214.199C223.481 214.199 223.367 214.211 223.295 214.235C222.839 214.427 222.504 214.823 222.288 215.423C221.568 218.073 221.208 219.62 221.208 220.064C221.208 220.4 221.304 220.64 221.496 220.784C221.688 220.927 221.898 220.999 222.126 220.999C222.57 220.999 223.007 220.802 223.439 220.406C223.871 220.01 224.165 219.524 224.321 218.949C224.357 218.829 224.393 218.763 224.429 218.751C224.465 218.739 224.56 218.727 224.716 218.715H224.788C224.968 218.715 225.058 218.763 225.058 218.859C225.058 218.871 225.046 218.937 225.022 219.057C224.83 219.74 224.459 220.346 223.907 220.874C223.355 221.401 222.714 221.665 221.982 221.665C221.142 221.665 220.507 221.287 220.075 220.532C219.583 221.275 219.02 221.647 218.384 221.647H218.276C217.688 221.647 217.269 221.491 217.017 221.179C216.765 220.868 216.633 220.538 216.621 220.19C216.621 219.806 216.735 219.494 216.963 219.254C217.191 219.015 217.461 218.895 217.772 218.895C218.288 218.895 218.546 219.147 218.546 219.65C218.546 219.89 218.474 220.1 218.33 220.28C218.186 220.46 218.048 220.58 217.916 220.64C217.784 220.7 217.706 220.73 217.682 220.73L217.629 220.748C217.629 220.76 217.664 220.784 217.736 220.82C217.808 220.856 217.904 220.897 218.024 220.945C218.144 220.993 218.258 221.011 218.366 220.999C218.798 220.999 219.17 220.73 219.481 220.19C219.589 219.998 219.727 219.59 219.895 218.967C220.063 218.343 220.231 217.695 220.399 217.024C220.567 216.352 220.663 215.956 220.687 215.836C220.747 215.513 220.777 215.279 220.777 215.135C220.777 214.799 220.687 214.559 220.507 214.415C220.327 214.271 220.123 214.199 219.895 214.199C219.415 214.199 218.966 214.391 218.546 214.775C218.126 215.159 217.832 215.651 217.664 216.25C217.64 216.358 217.611 216.418 217.575 216.43C217.539 216.442 217.443 216.454 217.287 216.466H217.035C216.963 216.394 216.927 216.328 216.927 216.268Z"/><path fill="#fff" d="M228.243 213.749C227.919 213.749 227.661 213.641 227.469 213.425C227.277 213.21 227.181 212.946 227.181 212.634C227.181 211.782 227.499 211.045 228.135 210.421C228.77 209.798 229.562 209.486 230.509 209.486C231.601 209.486 232.512 209.822 233.244 210.493C233.975 211.165 234.347 212.034 234.359 213.102C234.359 213.617 234.239 214.109 233.999 214.577C233.759 215.045 233.471 215.452 233.136 215.8C232.8 216.148 232.32 216.592 231.697 217.131C231.265 217.503 230.665 218.055 229.898 218.786L228.836 219.794L230.203 219.812C232.086 219.812 233.088 219.782 233.208 219.722C233.292 219.698 233.435 219.164 233.639 218.121V218.067H234.359V218.121C234.347 218.157 234.269 218.702 234.125 219.758C233.981 220.813 233.891 221.365 233.855 221.413V221.467H227.181V221.125V220.909C227.181 220.825 227.217 220.735 227.289 220.639C227.361 220.543 227.541 220.333 227.829 220.01C228.177 219.626 228.476 219.29 228.728 219.002C228.836 218.882 229.04 218.66 229.34 218.337C229.64 218.013 229.844 217.791 229.952 217.671C230.059 217.551 230.233 217.353 230.473 217.077C230.713 216.802 230.881 216.598 230.977 216.466C231.073 216.334 231.211 216.154 231.391 215.926C231.571 215.698 231.697 215.506 231.768 215.35C231.84 215.194 231.93 215.021 232.038 214.829C232.146 214.637 232.224 214.445 232.272 214.253C232.32 214.061 232.362 213.881 232.398 213.713C232.434 213.545 232.452 213.348 232.452 213.12C232.452 212.364 232.248 211.71 231.84 211.159C231.433 210.607 230.851 210.331 230.095 210.331C229.7 210.331 229.352 210.433 229.052 210.637C228.752 210.841 228.542 211.039 228.422 211.231C228.302 211.423 228.243 211.537 228.243 211.573C228.243 211.585 228.273 211.591 228.332 211.591C228.548 211.591 228.77 211.675 228.998 211.842C229.226 212.01 229.34 212.286 229.34 212.67C229.34 212.97 229.244 213.222 229.052 213.425C228.86 213.629 228.59 213.737 228.243 213.749Z"/><path fill="#fff" d="M240.281 217.204C240.281 217.204 240.281 217.126 240.281 216.97C240.281 216.814 240.365 216.694 240.533 216.61H245.911V213.912L245.929 211.213C246.049 211.057 246.163 210.979 246.271 210.979C246.427 210.979 246.547 211.069 246.631 211.249V216.61H251.992C252.172 216.706 252.262 216.826 252.262 216.97C252.262 217.114 252.172 217.234 251.992 217.33H246.631V222.691C246.535 222.858 246.427 222.942 246.307 222.942H246.271H246.235C246.091 222.942 245.983 222.858 245.911 222.691V217.33H240.533C240.365 217.246 240.281 217.126 240.281 216.97V217.204Z"/><path fill="#fff" d="M261.098 211.069L260.865 211.159C260.697 211.219 260.457 211.279 260.145 211.339C259.833 211.399 259.485 211.441 259.102 211.465H258.76V210.637H259.102C259.665 210.613 260.187 210.523 260.667 210.367C261.146 210.211 261.482 210.067 261.674 209.936C261.866 209.804 262.034 209.672 262.178 209.54C262.202 209.504 262.274 209.486 262.394 209.486C262.502 209.486 262.604 209.522 262.699 209.594V214.973L262.717 220.369C262.801 220.453 262.873 220.507 262.933 220.531C262.993 220.555 263.137 220.579 263.365 220.603C263.593 220.627 263.965 220.639 264.48 220.639H264.948V221.467H264.75C264.498 221.431 263.545 221.413 261.89 221.413C260.259 221.413 259.317 221.431 259.066 221.467H258.85V220.639H259.317C259.581 220.639 259.809 220.639 260.001 220.639C260.193 220.639 260.343 220.633 260.451 220.621C260.559 220.609 260.655 220.591 260.739 220.567C260.823 220.543 260.871 220.531 260.883 220.531C260.895 220.531 260.93 220.501 260.99 220.441C261.05 220.381 261.086 220.357 261.098 220.369V211.069Z"/><path fill="#fff" d="M270.093 211.069L269.859 211.159C269.691 211.219 269.451 211.279 269.14 211.339C268.828 211.399 268.48 211.441 268.096 211.465H267.754V210.637H268.096C268.66 210.613 269.182 210.523 269.661 210.367C270.141 210.211 270.477 210.067 270.669 209.936C270.861 209.804 271.028 209.672 271.172 209.54C271.196 209.504 271.268 209.486 271.388 209.486C271.496 209.486 271.598 209.522 271.694 209.594V214.973L271.712 220.369C271.796 220.453 271.868 220.507 271.928 220.531C271.988 220.555 272.132 220.579 272.36 220.603C272.588 220.627 272.959 220.639 273.475 220.639H273.943V221.467H273.745C273.493 221.431 272.54 221.413 270.885 221.413C269.254 221.413 268.312 221.431 268.06 221.467H267.844V220.639H268.312C268.576 220.639 268.804 220.639 268.996 220.639C269.188 220.639 269.337 220.633 269.445 220.621C269.553 220.609 269.649 220.591 269.733 220.567C269.817 220.543 269.865 220.531 269.877 220.531C269.889 220.531 269.925 220.501 269.985 220.441C270.045 220.381 270.081 220.357 270.093 220.369V211.069Z"/><path fill="#fff" d="M284.839 209.18C284.851 209.18 285.283 209.15 286.134 209.09C286.986 209.03 287.424 208.994 287.448 208.982C287.592 208.982 287.663 209.03 287.663 209.126C287.663 209.21 287.226 211.021 286.35 214.559C285.475 218.097 285.025 219.902 285.001 219.973C284.977 220.045 284.971 220.135 284.983 220.243C284.983 220.747 285.151 220.999 285.487 220.999C285.595 220.987 285.715 220.933 285.847 220.837C286.098 220.597 286.344 220.021 286.584 219.11C286.656 218.87 286.716 218.744 286.764 218.732C286.788 218.72 286.848 218.714 286.944 218.714H287.016H287.088C287.268 218.714 287.358 218.762 287.358 218.858C287.358 218.918 287.34 219.014 287.304 219.146C287.148 219.746 286.968 220.231 286.764 220.603C286.56 220.975 286.392 221.215 286.26 221.323C286.128 221.431 285.96 221.527 285.757 221.611C285.661 221.634 285.517 221.646 285.325 221.646C284.917 221.646 284.575 221.557 284.299 221.377C284.024 221.197 283.844 221.011 283.76 220.819L283.652 220.549C283.64 220.537 283.616 220.543 283.58 220.567C283.556 220.591 283.532 220.615 283.508 220.639C282.8 221.311 282.081 221.646 281.349 221.646C280.69 221.646 280.108 221.407 279.604 220.927C279.1 220.447 278.849 219.686 278.849 218.642C278.849 218.067 278.969 217.479 279.208 216.879C279.448 216.28 279.736 215.764 280.072 215.332C280.636 214.649 281.199 214.175 281.763 213.911C282.327 213.647 282.836 213.515 283.292 213.515C283.964 213.515 284.467 213.767 284.803 214.271C284.863 214.343 284.893 214.367 284.893 214.343C284.905 214.295 285.067 213.641 285.379 212.382C285.691 211.123 285.859 210.457 285.883 210.385C285.883 210.229 285.841 210.133 285.757 210.097C285.673 210.061 285.439 210.031 285.055 210.007H284.677C284.605 209.935 284.569 209.887 284.569 209.863C284.569 209.839 284.581 209.725 284.605 209.522C284.665 209.294 284.743 209.18 284.839 209.18ZM284.587 215.602C284.311 214.655 283.862 214.181 283.238 214.181C282.818 214.181 282.417 214.367 282.033 214.739C281.649 215.11 281.349 215.596 281.133 216.196C280.786 217.143 280.54 218.127 280.396 219.146C280.396 219.182 280.396 219.248 280.396 219.344C280.396 219.44 280.39 219.512 280.378 219.56C280.378 220.099 280.486 220.471 280.702 220.675C280.917 220.879 281.175 220.987 281.475 220.999C282.123 220.999 282.788 220.567 283.472 219.704L283.616 219.506L284.587 215.602Z"/><path fill="#fff" d="M288.545 216.268C288.629 215.764 288.953 215.183 289.517 214.523C290.08 213.864 290.776 213.528 291.603 213.516C292.023 213.516 292.407 213.624 292.755 213.84C293.102 214.055 293.36 214.325 293.528 214.649C294.032 213.894 294.638 213.516 295.345 213.516C295.789 213.516 296.173 213.648 296.496 213.912C296.82 214.175 296.988 214.529 297 214.973C297 215.321 296.916 215.603 296.748 215.818C296.58 216.034 296.418 216.166 296.263 216.214C296.107 216.262 295.969 216.286 295.849 216.286C295.621 216.286 295.435 216.22 295.291 216.088C295.147 215.956 295.075 215.782 295.075 215.567C295.075 215.015 295.375 214.637 295.975 214.433C295.843 214.277 295.603 214.199 295.255 214.199C295.099 214.199 294.985 214.211 294.913 214.235C294.458 214.427 294.122 214.823 293.906 215.423C293.186 218.073 292.827 219.62 292.827 220.064C292.827 220.4 292.923 220.64 293.114 220.784C293.306 220.927 293.516 220.999 293.744 220.999C294.188 220.999 294.626 220.802 295.057 220.406C295.489 220.01 295.783 219.524 295.939 218.949C295.975 218.829 296.011 218.763 296.047 218.751C296.083 218.739 296.179 218.727 296.335 218.715H296.406C296.586 218.715 296.676 218.763 296.676 218.859C296.676 218.871 296.664 218.937 296.64 219.057C296.448 219.74 296.077 220.346 295.525 220.874C294.973 221.401 294.332 221.665 293.6 221.665C292.761 221.665 292.125 221.287 291.693 220.532C291.202 221.275 290.638 221.647 290.002 221.647H289.894C289.307 221.647 288.887 221.491 288.635 221.179C288.383 220.868 288.251 220.538 288.239 220.19C288.239 219.806 288.353 219.494 288.581 219.254C288.809 219.015 289.079 218.895 289.391 218.895C289.906 218.895 290.164 219.147 290.164 219.65C290.164 219.89 290.092 220.1 289.948 220.28C289.804 220.46 289.666 220.58 289.535 220.64C289.403 220.7 289.325 220.73 289.301 220.73L289.247 220.748C289.247 220.76 289.283 220.784 289.355 220.82C289.427 220.856 289.523 220.897 289.642 220.945C289.762 220.993 289.876 221.011 289.984 220.999C290.416 220.999 290.788 220.73 291.1 220.19C291.208 219.998 291.345 219.59 291.513 218.967C291.681 218.343 291.849 217.695 292.017 217.024C292.185 216.352 292.281 215.956 292.305 215.836C292.365 215.513 292.395 215.279 292.395 215.135C292.395 214.799 292.305 214.559 292.125 214.415C291.945 214.271 291.741 214.199 291.513 214.199C291.034 214.199 290.584 214.391 290.164 214.775C289.744 215.159 289.451 215.651 289.283 216.25C289.259 216.358 289.229 216.418 289.193 216.43C289.157 216.442 289.061 216.454 288.905 216.466H288.653C288.581 216.394 288.545 216.328 288.545 216.268Z"/><path fill="#EBEBF5" fill-opacity=".6" d="M106.159 288.186C106.36 288.73 106.546 289.142 106.718 289.421C106.897 289.7 107.112 289.897 107.362 290.012C107.62 290.126 107.967 290.209 108.404 290.259V291H102.367V290.259C102.933 290.187 103.341 290.09 103.592 289.969C103.85 289.84 103.982 289.639 103.989 289.367C104.004 289.088 103.918 288.69 103.731 288.175L99.8535 277.196H100.187L96.4053 288.1C96.2191 288.644 96.126 289.059 96.126 289.346C96.1331 289.625 96.262 289.829 96.5127 289.958C96.7705 290.087 97.1859 290.187 97.7588 290.259V291H92.8711V290.259C93.3366 290.209 93.6947 290.123 93.9453 290.001C94.2031 289.879 94.418 289.672 94.5898 289.378C94.7617 289.077 94.9587 288.633 95.1807 288.046L99.8105 275.488H101.497L106.159 288.186ZM96.8027 285.597L97.1357 284.662H103.474L103.828 285.597H96.8027ZM111.968 280.193V281.858C112.283 281.35 112.745 280.927 113.354 280.591C113.963 280.247 114.679 280.075 115.502 280.075C116.605 280.075 117.5 280.372 118.188 280.967C118.875 281.561 119.219 282.406 119.219 283.502V289.292C119.219 289.621 119.301 289.847 119.466 289.969C119.638 290.083 120.068 290.18 120.755 290.259V291H115.674V290.259C116.319 290.187 116.716 290.098 116.867 289.99C117.024 289.876 117.103 289.661 117.103 289.346V284.071C117.103 283.183 116.874 282.51 116.415 282.052C115.964 281.593 115.345 281.364 114.557 281.364C113.941 281.364 113.415 281.486 112.978 281.729C112.548 281.966 112.23 282.252 112.022 282.589V289.346C112.022 289.661 112.101 289.876 112.258 289.99C112.416 290.098 112.817 290.187 113.461 290.259V291H108.38V290.259C109.068 290.18 109.494 290.083 109.659 289.969C109.83 289.847 109.916 289.621 109.916 289.292V282.353C109.916 282.066 109.873 281.869 109.788 281.762C109.709 281.647 109.515 281.554 109.207 281.482L108.38 281.278V280.623L111.968 280.193ZM122.042 283.104C122.042 282.474 122.214 281.934 122.557 281.482C122.901 281.031 123.381 280.684 123.997 280.44C124.613 280.197 125.336 280.075 126.167 280.075C126.983 280.075 127.689 280.158 128.283 280.322C128.877 280.48 129.329 280.662 129.637 280.87L129.712 283.545H129.024C128.874 282.743 128.537 282.134 128.014 281.719C127.499 281.303 126.887 281.096 126.178 281.096C125.497 281.096 124.953 281.239 124.545 281.525C124.137 281.812 123.932 282.206 123.932 282.707C123.932 283.201 124.122 283.584 124.502 283.856C124.888 284.121 125.422 284.347 126.102 284.533L126.962 284.77C127.95 285.049 128.723 285.446 129.282 285.962C129.841 286.47 130.12 287.165 130.12 288.046C130.12 288.683 129.93 289.238 129.551 289.711C129.171 290.184 128.663 290.549 128.025 290.807C127.395 291.064 126.7 291.193 125.941 291.193C125.368 291.193 124.835 291.147 124.341 291.054C123.846 290.968 123.399 290.853 122.998 290.71C122.604 290.567 122.278 290.406 122.02 290.227L121.934 287.477H122.622C122.751 288.085 122.976 288.59 123.299 288.991C123.621 289.385 124.008 289.682 124.459 289.883C124.917 290.076 125.404 290.173 125.92 290.173C126.629 290.173 127.191 290.012 127.606 289.689C128.022 289.36 128.229 288.945 128.229 288.443C128.229 287.949 128.065 287.559 127.735 287.272C127.413 286.986 126.876 286.735 126.124 286.521L125.254 286.284C124.273 286.012 123.492 285.629 122.912 285.135C122.332 284.633 122.042 283.957 122.042 283.104ZM132.588 282.771C132.438 282.342 132.287 282.016 132.137 281.794C131.987 281.572 131.804 281.411 131.589 281.311C131.374 281.21 131.095 281.124 130.751 281.053V280.312H135.736V281.053C135.327 281.089 135.027 281.153 134.833 281.246C134.64 281.339 134.536 281.497 134.522 281.719C134.515 281.934 134.579 282.249 134.715 282.664L136.778 289.056H136.369L138.614 282.664C138.758 282.256 138.826 281.944 138.819 281.729C138.811 281.507 138.715 281.35 138.529 281.257C138.349 281.157 138.077 281.089 137.712 281.053V280.312H142.342V281.053C141.977 281.089 141.705 281.153 141.526 281.246C141.347 281.339 141.25 281.497 141.236 281.719C141.228 281.941 141.289 282.256 141.418 282.664L143.491 289.056H143.083L145.296 282.675C145.439 282.259 145.504 281.944 145.489 281.729C145.482 281.507 145.378 281.35 145.178 281.257C144.985 281.157 144.68 281.089 144.265 281.053V280.312H148.143V281.053C147.799 281.103 147.523 281.174 147.316 281.268C147.115 281.354 146.943 281.515 146.8 281.751C146.657 281.98 146.492 282.342 146.306 282.836L143.309 291H142.17L139.259 282.503H139.721L136.616 291H135.478L132.588 282.771ZM148.097 285.726C148.097 284.616 148.312 283.638 148.742 282.793C149.171 281.948 149.766 281.285 150.525 280.806C151.291 280.326 152.172 280.086 153.168 280.086C154.134 280.086 154.947 280.272 155.606 280.645C156.272 281.017 156.777 281.547 157.121 282.234C157.464 282.915 157.636 283.724 157.636 284.662C157.636 284.941 157.626 285.178 157.604 285.371H149.257V284.512L155.864 284.501L155.595 284.802C155.595 284.737 155.595 284.676 155.595 284.619C155.595 284.562 155.595 284.494 155.595 284.415C155.595 283.706 155.502 283.104 155.316 282.61C155.13 282.116 154.851 281.74 154.478 281.482C154.113 281.225 153.669 281.096 153.146 281.096C152.287 281.096 151.585 281.425 151.041 282.084C150.504 282.743 150.235 283.749 150.235 285.103C150.235 286.076 150.41 286.929 150.761 287.659C151.119 288.382 151.621 288.945 152.265 289.346C152.91 289.747 153.665 289.947 154.532 289.947C155.09 289.947 155.624 289.854 156.132 289.668C156.641 289.475 157.06 289.22 157.389 288.905V289.657C157.01 290.108 156.476 290.484 155.789 290.785C155.101 291.079 154.303 291.226 153.393 291.226C152.383 291.226 151.477 291.007 150.675 290.57C149.88 290.126 149.25 289.493 148.785 288.669C148.326 287.845 148.097 286.864 148.097 285.726ZM162.575 280.193V282.396C163.234 281.636 163.821 281.067 164.337 280.688C164.86 280.308 165.361 280.118 165.841 280.118C166.271 280.118 166.571 280.236 166.743 280.473C166.915 280.702 167.001 280.97 167.001 281.278C167.001 281.429 166.983 281.572 166.947 281.708C166.911 281.844 166.861 281.951 166.797 282.03C166.689 281.994 166.539 281.969 166.346 281.955C166.16 281.934 165.959 281.923 165.744 281.923C165.143 281.923 164.541 282.027 163.939 282.234C163.345 282.435 162.908 282.693 162.629 283.008V289.174C162.629 289.439 162.661 289.643 162.726 289.786C162.797 289.922 162.955 290.022 163.198 290.087C163.442 290.151 163.818 290.209 164.326 290.259V291H158.987V290.259C159.675 290.187 160.101 290.094 160.266 289.979C160.438 289.858 160.523 289.632 160.523 289.303V282.353C160.523 282.066 160.48 281.869 160.395 281.762C160.316 281.647 160.122 281.554 159.814 281.482L158.987 281.278V280.623L162.575 280.193Z"/><rect width="208" height="8" x="93" y="314" fill="#787880" fill-opacity=".18" rx="4"/><rect width="48" height="8" x="93" y="362" fill="#787880" fill-opacity=".18" rx="4"/><rect width="38" height="8" x="153" y="362" fill="#787880" fill-opacity=".18" rx="4"/><rect width="158" height="8" x="93" y="338" fill="#787880" fill-opacity=".18" rx="4"/><rect width="48" height="8" x="93" y="386" fill="#787880" fill-opacity=".18" rx="4"/><rect width="38" height="8" x="153" y="386" fill="#787880" fill-opacity=".18" rx="4"/></g><defs><filter id="filter0_d_10560_14204" width="256" height="285" x="69" y="169" color-interpolation-filters="sRGB" filterUnits="userSpaceOnUse"><feFlood flood-opacity="0" result="BackgroundImageFix"/><feColorMatrix in="SourceAlpha" result="hardAlpha" type="matrix" values="0 0 0 0 0 0 0 0 0 0 0 0 0 0 0 0 0 0 127 0"/><feOffset dy="4"/><feGaussianBlur stdDeviation="4"/><feComposite in2="hardAlpha" operator="out"/><feColorMatrix type="matrix" values="0 0 0 0 0 0 0 0 0 0 0 0 0 0 0 0 0 0 0.12 0"/><feBlend in2="BackgroundImageFix" mode="normal" result="effect1_dropShadow_10560_14204"/><feBlend in="SourceGraphic" in2="effect1_dropShadow_10560_14204" mode="normal" result="shape"/></filter><radialGradient id="paint0_radial_10560_14204" cx="0" cy="0" r="1" gradientTransform="translate(196.5 305.428) rotate(90) scale(156.428 196.5)" gradientUnits="userSpaceOnUse"><stop stop-color="#CCC"/><stop offset="1" stop-color="#CCC" stop-opacity="0"/></radialGradient><clipPath id="clip0_10560_14204"><rect width="393" height="503" fill="#fff"/></clipPath></defs></svg>