<svg xmlns="http://www.w3.org/2000/svg" width="393" height="503" fill="none" viewBox="0 0 393 503"><g clip-path="url(#clip0_10560_13800)"><path fill="#000" d="M99.1228 330.645C99.5545 331.268 100.166 331.58 100.958 331.58H101.03C101.701 331.58 102.373 330.86 103.044 329.421C103.716 327.982 104.34 326.015 104.915 323.521C105.491 321.026 106.031 318.52 106.534 316.001C107.038 313.483 107.542 310.76 108.046 307.834C108.118 307.33 108.177 306.958 108.225 306.719C109.952 296.525 111.823 287.074 113.838 278.367C115.853 269.66 117.316 264 118.228 261.385C118.372 260.953 118.491 260.594 118.587 260.306C118.683 260.018 118.887 259.49 119.199 258.723C119.511 257.955 119.835 257.283 120.17 256.708C120.506 256.132 120.914 255.544 121.394 254.945C121.873 254.345 122.401 253.865 122.977 253.506C123.552 253.146 124.164 252.978 124.812 253.002C126.155 253.002 127.162 253.422 127.834 254.261C128.506 255.101 128.889 256.06 128.985 257.14C128.985 257.739 128.841 258.219 128.554 258.579C128.266 258.938 127.99 259.166 127.726 259.262C127.462 259.358 127.198 259.394 126.935 259.37C126.431 259.37 125.975 259.19 125.567 258.831C125.16 258.471 124.956 257.979 124.956 257.355C124.956 256.204 125.591 255.52 126.863 255.305L126.755 255.161C126.683 255.089 126.587 255.005 126.467 254.909C126.347 254.813 126.251 254.741 126.179 254.693C125.819 254.453 125.423 254.333 124.992 254.333C124.656 254.333 124.344 254.477 124.056 254.765C123.768 255.053 123.385 255.724 122.905 256.78C122.425 257.835 121.957 259.226 121.502 260.953C121.046 262.68 120.482 265.115 119.811 268.257C119.139 271.399 118.467 275.093 117.796 279.339C116.381 287.374 114.906 294.965 113.37 302.113C111.835 309.261 110.636 314.442 109.773 317.656C108.909 320.87 108.249 323.173 107.794 324.564C105.947 330.153 103.668 332.947 100.958 332.947C99.9982 332.947 99.1228 332.575 98.3312 331.832C97.5397 331.088 97.0959 330.069 97 328.774C97 327.934 97.2279 327.359 97.6836 327.047C98.1393 326.735 98.5951 326.579 99.0508 326.579C99.5545 326.579 100.01 326.759 100.418 327.119C100.826 327.478 101.03 327.97 101.03 328.594C101.03 329.745 100.394 330.429 99.1228 330.645Z"/><path fill="#000" d="M136.854 291.535C137.022 290.528 137.669 289.365 138.797 288.045C139.924 286.726 141.315 286.055 142.97 286.031C143.81 286.031 144.577 286.246 145.273 286.678C145.969 287.11 146.484 287.65 146.82 288.297C147.827 286.786 149.039 286.031 150.454 286.031C151.341 286.031 152.109 286.294 152.757 286.822C153.404 287.35 153.74 288.057 153.764 288.945C153.764 289.641 153.596 290.204 153.26 290.636C152.924 291.068 152.601 291.332 152.289 291.427C151.977 291.523 151.701 291.571 151.461 291.571C151.006 291.571 150.634 291.439 150.346 291.176C150.058 290.912 149.914 290.564 149.914 290.132C149.914 289.029 150.514 288.273 151.713 287.866C151.449 287.554 150.97 287.398 150.274 287.398C149.962 287.398 149.734 287.422 149.59 287.47C148.679 287.854 148.007 288.645 147.576 289.844C146.136 295.145 145.417 298.239 145.417 299.127C145.417 299.799 145.609 300.278 145.992 300.566C146.376 300.854 146.796 300.998 147.252 300.998C148.139 300.998 149.015 300.602 149.878 299.811C150.742 299.019 151.329 298.048 151.641 296.896C151.713 296.656 151.785 296.524 151.857 296.501C151.929 296.477 152.121 296.453 152.433 296.429H152.577C152.936 296.429 153.116 296.524 153.116 296.716C153.116 296.74 153.092 296.872 153.044 297.112C152.661 298.479 151.917 299.691 150.814 300.746C149.71 301.801 148.427 302.329 146.964 302.329C145.285 302.329 144.014 301.574 143.15 300.062C142.167 301.55 141.039 302.293 139.768 302.293H139.552C138.377 302.293 137.537 301.981 137.034 301.358C136.53 300.734 136.266 300.074 136.242 299.379C136.242 298.611 136.47 297.988 136.926 297.508C137.382 297.028 137.921 296.788 138.545 296.788C139.576 296.788 140.092 297.292 140.092 298.299C140.092 298.779 139.948 299.199 139.66 299.559C139.372 299.919 139.097 300.158 138.833 300.278C138.569 300.398 138.413 300.458 138.365 300.458L138.257 300.494C138.257 300.518 138.329 300.566 138.473 300.638C138.617 300.71 138.809 300.794 139.049 300.89C139.288 300.986 139.516 301.022 139.732 300.998C140.596 300.998 141.339 300.458 141.963 299.379C142.179 298.995 142.455 298.18 142.79 296.932C143.126 295.685 143.462 294.39 143.798 293.047C144.134 291.703 144.325 290.912 144.373 290.672C144.493 290.024 144.553 289.557 144.553 289.269C144.553 288.597 144.373 288.117 144.014 287.83C143.654 287.542 143.246 287.398 142.79 287.398C141.831 287.398 140.931 287.782 140.092 288.549C139.252 289.317 138.665 290.3 138.329 291.499C138.281 291.715 138.221 291.835 138.149 291.859C138.077 291.883 137.885 291.907 137.573 291.931H137.07C136.926 291.787 136.854 291.655 136.854 291.535Z"/><path fill="#000" d="M159.485 286.499C158.837 286.499 158.322 286.283 157.938 285.851C157.554 285.419 157.362 284.892 157.362 284.268C157.362 282.565 157.998 281.09 159.269 279.842C160.54 278.595 162.123 277.972 164.018 277.972C166.201 277.972 168.024 278.643 169.487 279.986C170.95 281.33 171.694 283.069 171.718 285.203C171.718 286.235 171.478 287.218 170.998 288.154C170.518 289.089 169.943 289.905 169.271 290.6C168.599 291.296 167.64 292.183 166.393 293.263C165.529 294.006 164.33 295.11 162.795 296.573L160.672 298.588L163.407 298.624C167.172 298.624 169.175 298.564 169.415 298.444C169.583 298.396 169.871 297.328 170.279 295.242V295.134H171.718V295.242C171.694 295.313 171.538 296.405 171.25 298.516C170.962 300.626 170.782 301.73 170.71 301.826V301.934H157.362V301.25V300.818C157.362 300.65 157.434 300.47 157.578 300.279C157.722 300.087 158.082 299.667 158.657 299.019C159.353 298.252 159.953 297.58 160.456 297.004C160.672 296.765 161.08 296.321 161.68 295.673C162.279 295.026 162.687 294.582 162.903 294.342C163.119 294.102 163.466 293.706 163.946 293.155C164.426 292.603 164.762 292.195 164.954 291.931C165.146 291.668 165.421 291.308 165.781 290.852C166.141 290.396 166.393 290.013 166.537 289.701C166.681 289.389 166.861 289.041 167.076 288.657C167.292 288.274 167.448 287.89 167.544 287.506C167.64 287.122 167.724 286.762 167.796 286.427C167.868 286.091 167.904 285.695 167.904 285.239C167.904 283.728 167.496 282.421 166.681 281.318C165.865 280.214 164.702 279.663 163.191 279.663C162.399 279.663 161.704 279.866 161.104 280.274C160.504 280.682 160.084 281.078 159.845 281.462C159.605 281.845 159.485 282.073 159.485 282.145C159.485 282.169 159.545 282.181 159.665 282.181C160.096 282.181 160.54 282.349 160.996 282.685C161.452 283.021 161.68 283.572 161.68 284.34C161.68 284.94 161.488 285.443 161.104 285.851C160.72 286.259 160.18 286.475 159.485 286.499Z"/><path fill="#000" d="M183.562 293.406C183.562 293.406 183.562 293.251 183.562 292.939C183.562 292.627 183.73 292.387 184.065 292.219H194.823V286.822L194.859 281.425C195.099 281.114 195.327 280.958 195.543 280.958C195.855 280.958 196.094 281.138 196.262 281.497V292.219H206.984C207.344 292.411 207.524 292.651 207.524 292.939C207.524 293.227 207.344 293.466 206.984 293.658H196.262V304.38C196.07 304.716 195.855 304.884 195.615 304.884H195.543H195.471C195.183 304.884 194.967 304.716 194.823 304.38V293.658H184.065C183.73 293.49 183.562 293.251 183.562 292.939V293.406Z"/><path fill="#000" d="M225.197 281.138L224.729 281.318C224.393 281.438 223.914 281.557 223.29 281.677C222.666 281.797 221.971 281.881 221.203 281.929H220.52V280.274H221.203C222.33 280.226 223.374 280.046 224.333 279.735C225.293 279.423 225.964 279.135 226.348 278.871C226.732 278.607 227.068 278.343 227.356 278.08C227.404 278.008 227.547 277.972 227.787 277.972C228.003 277.972 228.207 278.044 228.399 278.187V288.945L228.435 299.739C228.603 299.907 228.747 300.015 228.867 300.063C228.987 300.111 229.274 300.159 229.73 300.207C230.186 300.255 230.929 300.279 231.961 300.279H232.896V301.934H232.501C231.997 301.862 230.09 301.826 226.78 301.826C223.518 301.826 221.635 301.862 221.131 301.934H220.699V300.279H221.635C222.163 300.279 222.618 300.279 223.002 300.279C223.386 300.279 223.686 300.267 223.902 300.243C224.117 300.219 224.309 300.183 224.477 300.135C224.645 300.087 224.741 300.063 224.765 300.063C224.789 300.063 224.861 300.003 224.981 299.883C225.101 299.763 225.173 299.715 225.197 299.739V281.138Z"/><path fill="#000" d="M243.186 281.138L242.719 281.318C242.383 281.438 241.903 281.557 241.279 281.677C240.656 281.797 239.96 281.881 239.193 281.929H238.509V280.274H239.193C240.32 280.226 241.363 280.046 242.323 279.735C243.282 279.423 243.954 279.135 244.338 278.871C244.721 278.607 245.057 278.343 245.345 278.08C245.393 278.008 245.537 277.972 245.777 277.972C245.993 277.972 246.197 278.044 246.388 278.187V288.945L246.424 299.739C246.592 299.907 246.736 300.015 246.856 300.063C246.976 300.111 247.264 300.159 247.72 300.207C248.175 300.255 248.919 300.279 249.95 300.279H250.886V301.934H250.49C249.986 301.862 248.079 301.826 244.769 301.826C241.507 301.826 239.624 301.862 239.121 301.934H238.689V300.279H239.624C240.152 300.279 240.608 300.279 240.992 300.279C241.375 300.279 241.675 300.267 241.891 300.243C242.107 300.219 242.299 300.183 242.467 300.135C242.635 300.087 242.731 300.063 242.755 300.063C242.779 300.063 242.85 300.003 242.97 299.883C243.09 299.763 243.162 299.715 243.186 299.739V281.138Z"/><path fill="#000" d="M272.678 277.36C272.702 277.36 273.566 277.3 275.269 277.18C276.972 277.06 277.847 276.988 277.895 276.964C278.183 276.964 278.327 277.06 278.327 277.252C278.327 277.419 277.451 281.041 275.701 288.117C273.95 295.193 273.05 298.803 273.002 298.947C272.954 299.091 272.942 299.271 272.966 299.487C272.966 300.494 273.302 300.998 273.974 300.998C274.189 300.974 274.429 300.866 274.693 300.674C275.197 300.194 275.689 299.043 276.168 297.22C276.312 296.74 276.432 296.488 276.528 296.464C276.576 296.44 276.696 296.428 276.888 296.428H277.032H277.176C277.535 296.428 277.715 296.524 277.715 296.716C277.715 296.836 277.679 297.028 277.607 297.292C277.296 298.491 276.936 299.463 276.528 300.206C276.12 300.95 275.784 301.429 275.521 301.645C275.257 301.861 274.921 302.053 274.513 302.221C274.321 302.269 274.033 302.293 273.65 302.293C272.834 302.293 272.151 302.113 271.599 301.753C271.047 301.393 270.687 301.022 270.52 300.638L270.304 300.098C270.28 300.074 270.232 300.086 270.16 300.134C270.112 300.182 270.064 300.23 270.016 300.278C268.601 301.621 267.161 302.293 265.698 302.293C264.379 302.293 263.216 301.813 262.208 300.854C261.201 299.894 260.697 298.371 260.697 296.284C260.697 295.133 260.937 293.958 261.417 292.759C261.897 291.559 262.472 290.528 263.144 289.664C264.271 288.297 265.399 287.35 266.526 286.822C267.653 286.294 268.673 286.03 269.584 286.03C270.927 286.03 271.935 286.534 272.606 287.542C272.726 287.686 272.786 287.733 272.786 287.686C272.81 287.59 273.134 286.282 273.758 283.764C274.381 281.245 274.717 279.914 274.765 279.77C274.765 279.458 274.681 279.266 274.513 279.194C274.345 279.123 273.878 279.063 273.11 279.015H272.354C272.211 278.871 272.139 278.775 272.139 278.727C272.139 278.679 272.163 278.451 272.211 278.043C272.33 277.587 272.486 277.36 272.678 277.36ZM272.175 290.204C271.623 288.309 270.723 287.362 269.476 287.362C268.637 287.362 267.833 287.733 267.066 288.477C266.298 289.221 265.698 290.192 265.267 291.391C264.571 293.286 264.079 295.253 263.791 297.292C263.791 297.364 263.791 297.496 263.791 297.688C263.791 297.88 263.779 298.023 263.755 298.119C263.755 299.199 263.971 299.942 264.403 300.35C264.835 300.758 265.351 300.974 265.95 300.998C267.245 300.998 268.577 300.134 269.944 298.407L270.232 298.011L272.175 290.204Z"/><path fill="#000" d="M280.09 291.535C280.258 290.528 280.905 289.365 282.033 288.045C283.16 286.726 284.551 286.055 286.206 286.031C287.046 286.031 287.813 286.246 288.509 286.678C289.204 287.11 289.72 287.65 290.056 288.297C291.063 286.786 292.275 286.031 293.69 286.031C294.577 286.031 295.345 286.294 295.992 286.822C296.64 287.35 296.976 288.057 297 288.945C297 289.641 296.832 290.204 296.496 290.636C296.16 291.068 295.836 291.332 295.525 291.427C295.213 291.523 294.937 291.571 294.697 291.571C294.241 291.571 293.87 291.439 293.582 291.176C293.294 290.912 293.15 290.564 293.15 290.132C293.15 289.029 293.75 288.273 294.949 287.866C294.685 287.554 294.205 287.398 293.51 287.398C293.198 287.398 292.97 287.422 292.826 287.47C291.915 287.854 291.243 288.645 290.811 289.844C289.372 295.145 288.653 298.239 288.653 299.127C288.653 299.799 288.845 300.278 289.228 300.566C289.612 300.854 290.032 300.998 290.488 300.998C291.375 300.998 292.251 300.602 293.114 299.811C293.978 299.019 294.565 298.048 294.877 296.896C294.949 296.656 295.021 296.524 295.093 296.501C295.165 296.477 295.357 296.453 295.669 296.429H295.812C296.172 296.429 296.352 296.524 296.352 296.716C296.352 296.74 296.328 296.872 296.28 297.112C295.896 298.479 295.153 299.691 294.05 300.746C292.946 301.801 291.663 302.329 290.2 302.329C288.521 302.329 287.249 301.574 286.386 300.062C285.403 301.55 284.275 302.293 283.004 302.293H282.788C281.613 302.293 280.773 301.981 280.27 301.358C279.766 300.734 279.502 300.074 279.478 299.379C279.478 298.611 279.706 297.988 280.162 297.508C280.617 297.028 281.157 296.788 281.781 296.788C282.812 296.788 283.328 297.292 283.328 298.299C283.328 298.779 283.184 299.199 282.896 299.559C282.608 299.919 282.332 300.158 282.069 300.278C281.805 300.398 281.649 300.458 281.601 300.458L281.493 300.494C281.493 300.518 281.565 300.566 281.709 300.638C281.853 300.71 282.045 300.794 282.284 300.89C282.524 300.986 282.752 301.022 282.968 300.998C283.831 300.998 284.575 300.458 285.199 299.379C285.415 298.995 285.69 298.18 286.026 296.932C286.362 295.685 286.698 294.39 287.034 293.047C287.369 291.703 287.561 290.912 287.609 290.672C287.729 290.024 287.789 289.557 287.789 289.269C287.789 288.597 287.609 288.117 287.249 287.83C286.89 287.542 286.482 287.398 286.026 287.398C285.067 287.398 284.167 287.782 283.328 288.549C282.488 289.317 281.901 290.3 281.565 291.499C281.517 291.715 281.457 291.835 281.385 291.859C281.313 291.883 281.121 291.907 280.809 291.931H280.306C280.162 291.787 280.09 291.655 280.09 291.535Z"/><path stroke="url(#paint0_radial_10560_13800)" stroke-opacity=".7" d="M0.133628 149L0.133614 461.855M49.2419 149L49.2419 461.855M98.3502 149L98.3502 461.855M147.459 149L147.458 461.855M196.567 149V305.428L196.567 461.855M245.675 149L245.675 461.855M294.783 149L294.783 461.855M343.892 149L343.892 461.855M393 149L393 461.855M0 453.108H392.866M0 403.888L392.866 403.888M0 354.667L392.866 354.667M0 305.447L392.866 305.447M0 256.227L392.866 256.227M0 207.007L392.866 207.007M0 157.787L392.866 157.787"/><path stroke="#FFA000" stroke-linecap="round" stroke-width="3.722" d="M57 187.332V179.888C57 171.666 63.6654 165 71.8877 165H79.4184"/><path stroke="#FFA000" stroke-linecap="round" stroke-width="3.722" d="M314.668 165H322.112C330.335 165 337 171.665 337 179.888V187.245"/><mask id="path-12-inside-1_10560_13800" fill="#fff"><path d="M57 278.355H337V314.644H57V278.355Z"/></mask><path fill="url(#paint1_linear_10560_13800)" d="M57 278.355H337V314.644H57V278.355Z"/><path fill="#EA5B29" d="M57 282.077H337V274.634H57V282.077Z" mask="url(#path-12-inside-1_10560_13800)"/><path stroke="#FFA000" stroke-linecap="round" stroke-width="3.722" d="M57 405.668V413.112C57 421.334 63.6655 428 71.8877 428H79.3316"/><path stroke="#FFA000" stroke-linecap="round" stroke-width="3.722" d="M337 405.668V413.112C337 421.334 330.335 428 322.112 428H314.582"/></g><defs><radialGradient id="paint0_radial_10560_13800" cx="0" cy="0" r="1" gradientTransform="translate(196.5 305.428) rotate(90) scale(156.428 196.5)" gradientUnits="userSpaceOnUse"><stop stop-color="#CCC"/><stop offset="1" stop-color="#CCC" stop-opacity="0"/></radialGradient><linearGradient id="paint1_linear_10560_13800" x1="190.488" x2="182.091" y1="129.944" y2="320.227" gradientUnits="userSpaceOnUse"><stop stop-color="#EA5B29"/><stop offset="1" stop-color="#EA5B29" stop-opacity="0"/></linearGradient><clipPath id="clip0_10560_13800"><rect width="393" height="503" fill="#fff"/></clipPath></defs></svg>