<svg xmlns="http://www.w3.org/2000/svg" width="393" height="503" fill="none" viewBox="0 0 393 503"><rect width="80" height="80" x="57" y="154" fill="#FF7F7F" rx="26.667"/><path fill="#fff" fill-rule="evenodd" d="M106.259 180.636L108.065 181.358L106.688 183.128C105.889 184.155 106.074 185.635 107.102 186.434C108.129 187.233 109.609 187.048 110.408 186.021L111.847 184.171L113.286 186.021C114.085 187.048 115.565 187.233 116.592 186.434C117.62 185.635 117.805 184.155 117.006 183.128L115.629 181.358L117.435 180.636C118.643 180.152 119.231 178.781 118.747 177.573C118.264 176.364 116.893 175.777 115.685 176.26L114.203 176.853V175.149C114.203 173.848 113.148 172.793 111.847 172.793C110.546 172.793 109.491 173.848 109.491 175.149V176.852L108.01 176.26C106.801 175.777 105.43 176.364 104.947 177.573C104.463 178.781 105.051 180.152 106.259 180.636ZM75.0889 185.046C75.0889 183.484 76.3548 182.218 77.9164 182.218H101.479C103.041 182.218 104.307 183.484 104.307 185.046V189.245C104.307 190.291 103.693 191.384 102.511 191.565C102.203 191.612 101.857 191.643 101.479 191.643C100.963 191.643 100.506 191.585 100.126 191.508C99.1746 191.314 98.6028 190.503 98.4349 189.663L98.2654 188.816H92.9967L92.9963 209.08H93.4254C94.4768 209.08 95.5542 209.701 95.7321 210.881C95.7869 211.244 95.8242 211.666 95.8242 212.143C95.8242 212.62 95.7869 213.042 95.7321 213.405C95.5542 214.585 94.4768 215.206 93.4254 215.206H85.9702C84.9189 215.206 83.8415 214.585 83.6636 213.405C83.6088 213.042 83.5715 212.62 83.5715 212.143C83.5715 211.666 83.6088 211.244 83.6636 210.881C83.8415 209.701 84.9189 209.08 85.9703 209.08H86.3987L86.399 188.816H81.1303L80.9608 189.663C80.7929 190.503 80.2211 191.314 79.2699 191.508C78.89 191.585 78.4323 191.643 77.9164 191.643C77.5387 191.643 77.1923 191.612 76.8847 191.565C75.7024 191.384 75.0889 190.291 75.0889 189.245V185.046Z" clip-rule="evenodd"/><rect width="80" height="80" x="157" y="154" fill="#8DDA42" rx="26.667"/><path fill="#fff" fill-rule="evenodd" d="M191.133 172.601C191.626 172.555 192.189 172.524 192.807 172.524C193.426 172.524 193.989 172.555 194.483 172.601C196.008 172.74 197.022 174.08 196.899 175.564C196.826 176.456 196.721 177.347 196.617 178.122C202.077 178.144 205.494 178.21 207.357 178.26C208.628 178.294 209.822 179.115 209.972 180.487C210.016 180.882 210.044 181.335 210.044 181.842C210.044 182.348 210.016 182.801 209.972 183.196C209.822 184.568 208.628 185.389 207.357 185.423L207.164 185.428C206.728 185.4 206.283 185.382 205.847 185.382C204.905 185.382 203.922 185.465 203.079 185.562C199.996 185.917 197.664 188.131 196.809 190.841C195.702 194.353 194.416 198.555 193.262 202.365C193.109 202.255 192.957 202.143 192.807 202.03C189.679 204.389 185.863 206.186 181.235 206.953C179.997 207.159 178.688 206.563 178.227 205.314C177.947 204.554 177.767 203.801 177.65 203.146C177.389 201.677 178.509 200.508 179.829 200.228C182.824 199.59 185.409 198.43 187.611 196.933C184.648 193.216 182.688 189.069 181.442 185.49C180.086 185.468 179.036 185.444 178.258 185.423C176.987 185.389 175.793 184.568 175.643 183.196C175.599 182.801 175.571 182.348 175.571 181.842C175.571 181.335 175.599 180.882 175.643 180.487C175.793 179.115 176.987 178.294 178.258 178.26C180.125 178.21 183.554 178.144 189.037 178.122C188.935 177.32 188.828 176.414 188.747 175.568C188.606 174.084 189.603 172.741 191.133 172.601ZM189.22 185.562C190.051 187.748 191.238 189.964 192.807 192.004C194.377 189.964 195.564 187.748 196.395 185.562C195.284 185.566 194.089 185.568 192.807 185.568C191.526 185.568 190.331 185.566 189.22 185.562ZM208.295 188.338C207.507 188.248 206.64 188.177 205.847 188.177C205.054 188.177 204.187 188.248 203.399 188.338C201.521 188.555 200.033 189.914 199.475 191.682C197.397 198.271 194.684 207.313 193.407 211.591C192.933 213.181 193.77 214.975 195.573 215.141C195.944 215.176 196.349 215.197 196.782 215.197C197.563 215.197 198.176 215.128 198.65 215.034C199.698 214.827 200.278 213.937 200.508 213.058L201.413 209.606H210.282L211.144 212.896C211.403 213.884 212.076 214.845 213.224 215.05C213.703 215.135 214.305 215.197 215.045 215.197C215.387 215.197 215.709 215.186 216.009 215.168C217.871 215.055 218.791 213.225 218.296 211.574C216.994 207.226 214.286 198.227 212.219 191.682C211.661 189.914 210.173 188.555 208.295 188.338ZM205.9 195.345C206 195.345 206.089 195.408 206.121 195.503L208.529 202.619H203.163L205.571 195.503C205.603 195.408 205.692 195.345 205.792 195.345H205.9Z" clip-rule="evenodd"/><rect width="79" height="79" x="257" y="154" fill="#7977EA" rx="26.333"/><path fill="#fff" fill-rule="evenodd" d="M277.979 171.044C278.508 169.815 279.744 169.061 281.088 169.197C282.625 169.353 283.965 169.677 284.991 169.994C286.554 170.478 287.189 172.136 286.773 173.593C285.925 176.558 284.854 181.28 284.199 187.792C284.09 188.868 283.494 189.951 282.347 190.336C281.478 190.628 280.244 190.905 278.681 190.905C277.399 190.905 276.325 190.718 275.491 190.491C273.968 190.075 273.316 188.532 273.564 187.121C275.062 178.618 276.934 173.469 277.979 171.044ZM289.499 171.333C289.961 169.958 291.287 169.045 292.762 169.23C294.157 169.405 295.293 169.735 296.139 170.057C297.476 170.566 298.077 171.93 297.957 173.239C297.684 176.224 297.179 182.305 297.081 187.533C297.059 188.75 296.422 189.993 295.129 190.393C294.256 190.662 293.065 190.904 291.602 190.904C290.238 190.904 289.11 190.694 288.256 190.447C286.838 190.037 286.183 188.627 286.322 187.292C287.163 179.208 288.624 173.938 289.499 171.333ZM309.991 217.803C311.334 217.939 312.57 217.185 313.1 215.957C314.145 213.531 316.017 208.382 317.515 199.88C317.763 198.468 317.111 196.925 315.588 196.509C314.754 196.282 313.68 196.096 312.398 196.096C310.835 196.096 309.6 196.372 308.732 196.664C307.585 197.049 306.988 198.132 306.88 199.209C306.225 205.72 305.154 210.442 304.306 213.407C303.89 214.864 304.525 216.522 306.087 217.006C307.114 217.323 308.453 217.647 309.991 217.803ZM301.58 215.667C301.117 217.041 299.792 217.955 298.317 217.77C296.922 217.595 295.786 217.265 294.939 216.942C293.603 216.433 293.002 215.069 293.122 213.76C293.395 210.776 293.899 204.695 293.997 199.467C294.02 198.25 294.656 197.007 295.949 196.607C296.823 196.338 298.014 196.096 299.477 196.096C300.841 196.096 301.968 196.306 302.822 196.553C304.241 196.963 304.896 198.372 304.757 199.708C303.915 207.792 302.455 213.061 301.58 215.667Z" clip-rule="evenodd"/><rect width="80" height="80" x="57" y="254" fill="#6495ED" rx="26.667"/><path fill="#fff" fill-rule="evenodd" d="M110.704 274.505C109.82 272.888 107.498 272.888 106.614 274.505L105.543 276.463C104.644 278.106 103.293 279.456 101.651 280.355L99.6925 281.426C98.0757 282.31 98.0757 284.632 99.6925 285.517L101.651 286.587C103.293 287.486 104.644 288.837 105.543 290.48L106.614 292.438C107.498 294.055 109.82 294.055 110.704 292.438L111.775 290.48C112.674 288.837 114.025 287.486 115.667 286.587L117.626 285.517C119.242 284.632 119.242 282.31 117.626 281.426L115.667 280.355C114.025 279.456 112.674 278.106 111.775 276.463L110.704 274.505ZM85.3465 274.612C89.2952 274.612 91.6531 274.675 93.044 274.742C94.4296 274.808 95.5464 275.741 95.5936 277.202C95.6003 277.407 95.604 277.631 95.604 277.876C95.604 278.121 95.6003 278.345 95.5936 278.55C95.5464 280.011 94.4296 280.944 93.044 281.01C91.6531 281.077 89.2952 281.14 85.3465 281.14C81.3978 281.14 79.0397 281.077 77.6488 281.01C76.2633 280.944 75.1465 280.011 75.0992 278.55C75.0926 278.345 75.0889 278.121 75.0889 277.876C75.0889 277.631 75.0926 277.407 75.0992 277.202C75.1465 275.741 76.2633 274.808 77.6488 274.742C79.0398 274.675 81.3977 274.612 85.3465 274.612ZM116.572 308.391C114.424 308.307 109.177 308.183 97.0028 308.183C84.829 308.183 79.5816 308.307 77.4338 308.391C76.4357 308.429 75.3674 308.95 75.1817 310.133C75.1254 310.491 75.0889 310.925 75.0889 311.446C75.0889 311.968 75.1254 312.402 75.1817 312.76C75.3674 313.942 76.4357 314.464 77.4338 314.502C79.5816 314.585 84.829 314.71 97.0028 314.71C109.177 314.71 114.424 314.585 116.572 314.502C117.57 314.464 118.638 313.942 118.824 312.76C118.88 312.402 118.917 311.968 118.917 311.446C118.917 310.924 118.88 310.491 118.824 310.133C118.638 308.95 117.57 308.429 116.572 308.391ZM85.3465 285.802C89.2952 285.802 91.6531 285.865 93.044 285.932C94.4296 285.998 95.5464 286.931 95.5936 288.393C95.6003 288.597 95.604 288.821 95.604 289.066C95.604 289.311 95.6003 289.535 95.5936 289.74C95.5464 291.201 94.4296 292.134 93.044 292.201C91.6531 292.267 89.2952 292.33 85.3465 292.33C81.3978 292.33 79.0397 292.267 77.6488 292.201C76.2633 292.134 75.1465 291.201 75.0992 289.74C75.0926 289.535 75.0889 289.311 75.0889 289.066C75.0889 288.821 75.0926 288.597 75.0992 288.393C75.1465 286.931 76.2633 285.998 77.6488 285.932C79.0397 285.865 81.3977 285.802 85.3465 285.802ZM116.572 297.2C114.424 297.117 109.177 296.993 97.0028 296.993C84.829 296.993 79.5816 297.117 77.4338 297.2C76.4357 297.239 75.3674 297.76 75.1817 298.943C75.1254 299.301 75.0889 299.734 75.0889 300.256C75.0889 300.778 75.1254 301.212 75.1817 301.57C75.3674 302.752 76.4357 303.273 77.4338 303.312C79.5816 303.395 84.829 303.52 97.0028 303.52C109.177 303.52 114.424 303.395 116.572 303.312C117.57 303.273 118.638 302.752 118.824 301.57C118.88 301.211 118.917 300.778 118.917 300.256C118.917 299.734 118.88 299.301 118.824 298.943C118.638 297.76 117.57 297.239 116.572 297.2Z" clip-rule="evenodd"/><rect width="80" height="80" x="157" y="254" fill="#FFB300" rx="26.667"/><g clip-path="url(#clip0_10560_14256)"><path fill="#fff" fill-rule="evenodd" d="M197.807 271.486C199.716 269.577 202.78 268.864 205.271 270.555C206.59 271.451 208.205 272.713 209.925 274.433C211.645 276.153 212.908 277.768 213.804 279.088C215.495 281.579 214.782 284.643 212.873 286.551L210.412 289.012C210.32 288.827 210.22 288.635 210.113 288.436C209.016 286.391 207.131 283.59 203.95 280.408C200.769 277.227 197.968 275.343 195.923 274.245C195.723 274.138 195.531 274.039 195.346 273.946L197.807 271.486ZM192.972 276.321L175.368 293.925C175.553 294.018 175.745 294.117 175.944 294.224C177.989 295.322 180.79 297.206 183.971 300.388C187.153 303.569 189.037 306.37 190.135 308.415C190.242 308.614 190.341 308.807 190.434 308.991L208.038 291.387C207.869 290.988 207.64 290.498 207.334 289.928C206.383 288.155 204.683 285.603 201.72 282.639C198.756 279.676 196.204 277.976 194.431 277.025C193.861 276.719 193.371 276.49 192.972 276.321ZM173.319 296.442C173.076 296.965 172.915 297.535 172.861 298.138C172.702 299.927 172.533 303.325 172.872 308.133C172.999 309.93 174.429 311.36 176.225 311.486C181.033 311.825 184.431 311.656 186.22 311.497C186.823 311.443 187.393 311.283 187.917 311.039C187.767 310.709 187.582 310.329 187.355 309.905C186.404 308.133 184.704 305.581 181.741 302.617C178.777 299.654 176.225 297.954 174.453 297.003C174.029 296.776 173.65 296.591 173.319 296.442ZM207.586 299.591C203.695 299.591 200.54 302.746 200.54 306.637C200.54 308.811 201.544 310.864 203.26 312.199L204.357 313.052C202.831 313.875 201.117 314.312 199.365 314.312H174.252C173.091 314.312 172.149 315.254 172.149 316.415C172.149 317.577 173.091 318.518 174.252 318.518H199.365C202.425 318.518 205.403 317.565 207.889 315.799L209.107 316.746C210.583 317.895 212.401 318.518 214.271 318.518H218.416C219.577 318.518 220.519 317.577 220.519 316.415C220.519 315.254 219.577 314.312 218.416 314.312H214.271C213.336 314.312 212.427 314 211.689 313.426L211.326 313.144L212.541 312.199C214.257 310.864 215.261 308.811 215.261 306.637C215.261 302.746 212.106 299.591 208.215 299.591H207.586ZM209.959 308.879L207.901 310.48L205.842 308.879C205.151 308.341 204.746 307.513 204.746 306.637C204.746 305.069 206.018 303.797 207.586 303.797H208.215C209.784 303.797 211.055 305.069 211.055 306.637C211.055 307.513 210.65 308.341 209.959 308.879Z" clip-rule="evenodd"/></g><rect width="81" height="81" x="257" y="254" fill="#F08080" rx="27"/><path fill="#fff" fill-rule="evenodd" d="M274.829 294.001C274.829 281.757 284.754 271.832 296.998 271.832C309.241 271.832 319.167 281.757 319.167 294.001C319.167 306.245 309.241 316.17 296.998 316.17C292.964 316.17 289.181 315.092 285.922 313.209C283.455 314.121 280.654 315.016 277.902 315.654C276.337 316.016 274.937 314.677 275.25 313.095C275.821 310.216 276.706 307.327 277.649 304.831C275.853 301.628 274.829 297.933 274.829 294.001ZM290.394 285.511C291.436 285.511 292.281 286.355 292.281 287.397V289.284C292.281 290.326 291.436 291.171 290.394 291.171C289.352 291.171 288.507 290.326 288.507 289.284V287.397C288.507 286.355 289.352 285.511 290.394 285.511ZM289.45 296.359C288.18 296.359 287.009 297.42 287.287 298.799C288.2 303.327 292.2 306.736 296.997 306.736C301.794 306.736 305.794 303.327 306.707 298.799C306.985 297.42 305.814 296.359 304.544 296.359H289.45ZM301.714 287.397C301.714 286.355 302.559 285.511 303.601 285.511C304.643 285.511 305.488 286.355 305.488 287.397V289.284C305.488 290.326 304.643 291.171 303.601 291.171C302.559 291.171 301.714 290.326 301.714 289.284V287.397Z" clip-rule="evenodd"/><rect width="80" height="80" x="57" y="354" fill="#48D1CC" rx="26.667"/><path fill="#fff" fill-rule="evenodd" d="M73.5757 375.631C73.5757 373.425 75.3634 371.638 77.5687 371.638C79.774 371.638 81.5618 373.425 81.5618 375.631C81.5618 377.836 79.774 379.624 77.5687 379.624C75.3634 379.624 73.5757 377.836 73.5757 375.631ZM87.3503 371.835C89.4383 371.749 93.7851 371.638 102.326 371.638C110.866 371.638 115.213 371.749 117.301 371.835C118.736 371.894 120.248 372.78 120.388 374.563C120.413 374.876 120.428 375.23 120.428 375.631C120.428 376.032 120.413 376.386 120.388 376.698C120.248 378.481 118.736 379.367 117.301 379.426C115.213 379.513 110.866 379.624 102.326 379.624C93.7851 379.624 89.4383 379.513 87.3503 379.426C85.9158 379.367 84.4038 378.481 84.2631 376.698C84.2384 376.386 84.2238 376.032 84.2238 375.631C84.2238 375.23 84.2384 374.876 84.2631 374.563C84.4038 372.78 85.9158 371.894 87.3503 371.835ZM73.5757 400.121C73.5757 397.916 75.3634 396.128 77.5687 396.128C79.774 396.128 81.5618 397.916 81.5618 400.121C81.5618 402.327 79.774 404.115 77.5687 404.115C75.3634 404.115 73.5757 402.327 73.5757 400.121ZM73.5757 412.367C73.5757 410.162 75.3634 408.374 77.5687 408.374C79.774 408.374 81.5618 410.162 81.5618 412.367C81.5618 414.572 79.774 416.36 77.5687 416.36C75.3634 416.36 73.5757 414.572 73.5757 412.367ZM77.5687 383.883C75.3634 383.883 73.5757 385.671 73.5757 387.876C73.5757 390.081 75.3634 391.869 77.5687 391.869C79.774 391.869 81.5618 390.081 81.5618 387.876C81.5618 385.671 79.774 383.883 77.5687 383.883ZM102.326 383.883C93.7851 383.883 89.4383 383.994 87.3503 384.08C85.9158 384.14 84.4038 385.026 84.2631 386.809C84.2384 387.121 84.2238 387.475 84.2238 387.876C84.2238 388.277 84.2384 388.631 84.2631 388.944C84.4038 390.726 85.9158 391.613 87.3503 391.672C89.4383 391.758 93.7851 391.869 102.326 391.869C110.866 391.869 115.213 391.758 117.301 391.672C118.736 391.613 120.248 390.726 120.388 388.944C120.413 388.631 120.428 388.277 120.428 387.876C120.428 387.475 120.413 387.121 120.388 386.809C120.248 385.026 118.736 384.14 117.301 384.08C115.213 383.994 110.866 383.883 102.326 383.883ZM102.326 396.128C93.7851 396.128 89.4383 396.24 87.3503 396.326C85.9158 396.385 84.4038 397.271 84.2631 399.054C84.2384 399.366 84.2238 399.721 84.2238 400.121C84.2238 400.522 84.2384 400.877 84.2631 401.189C84.4038 402.972 85.9158 403.858 87.3503 403.917C89.4383 404.003 93.7851 404.115 102.326 404.115C110.866 404.115 115.213 404.003 117.301 403.917C118.736 403.858 120.248 402.972 120.388 401.189C120.413 400.877 120.428 400.522 120.428 400.121C120.428 399.721 120.413 399.366 120.388 399.054C120.248 397.271 118.736 396.385 117.301 396.326C115.213 396.24 110.866 396.128 102.326 396.128ZM87.3503 408.571C89.4383 408.485 93.7851 408.374 102.326 408.374C110.866 408.374 115.213 408.485 117.301 408.571C118.736 408.63 120.248 409.517 120.388 411.299C120.413 411.612 120.428 411.966 120.428 412.367C120.428 412.768 120.413 413.122 120.388 413.434C120.248 415.217 118.736 416.103 117.301 416.163C115.213 416.249 110.866 416.36 102.326 416.36C93.7851 416.36 89.4383 416.249 87.3503 416.163C85.9158 416.103 84.4038 415.217 84.2631 413.434C84.2384 413.122 84.2238 412.768 84.2238 412.367C84.2238 411.966 84.2384 411.612 84.2631 411.299C84.4038 409.517 85.9158 408.63 87.3503 408.571Z" clip-rule="evenodd"/><rect width="80" height="80" x="157" y="354" fill="#40E0D0" rx="26.667"/><path fill="#fff" fill-rule="evenodd" d="M177.465 374.944C177.465 373.366 178.745 372.086 180.324 372.086H204.143C205.722 372.086 207.002 373.366 207.002 374.944V379.778C207.002 380.487 206.59 381.212 205.808 381.409C205.375 381.518 204.807 381.614 204.143 381.614C203.377 381.614 202.737 381.486 202.287 381.358C201.656 381.178 201.271 380.637 201.157 380.069L200.895 378.755H195.568L195.568 399.24H196.591C197.301 399.24 198.025 399.656 198.214 400.443C198.327 400.914 198.427 401.553 198.427 402.337C198.427 403.121 198.327 403.76 198.214 404.231C198.025 405.018 197.301 405.434 196.591 405.434H187.877C187.166 405.434 186.442 405.018 186.253 404.231C186.14 403.76 186.04 403.121 186.04 402.337C186.04 401.553 186.14 400.914 186.253 400.443C186.442 399.656 187.166 399.24 187.877 399.24H188.898L188.899 378.755H183.573L183.31 380.069C183.196 380.637 182.811 381.178 182.18 381.358C181.73 381.486 181.09 381.614 180.324 381.614C179.66 381.614 179.092 381.518 178.659 381.409C177.877 381.212 177.465 380.487 177.465 379.778V374.944ZM215.832 402.319C216.762 403.249 216.762 404.758 215.832 405.688L212.752 408.768L215.832 411.847C216.762 412.778 216.762 414.286 215.832 415.216C214.902 416.146 213.394 416.146 212.463 415.216L209.384 412.136L206.304 415.216C205.374 416.146 203.866 416.146 202.936 415.216C202.005 414.285 202.005 412.777 202.936 411.847L206.015 408.768L202.935 405.688C202.005 404.758 202.005 403.25 202.935 402.319C203.866 401.389 205.374 401.389 206.304 402.319L209.384 405.399L212.463 402.319C213.394 401.389 214.902 401.389 215.832 402.319Z" clip-rule="evenodd"/><rect width="79" height="79" x="257" y="354" fill="#32ADE6" rx="26.333"/><path fill="#fff" fill-rule="evenodd" d="M278.677 371.798C275.886 371.661 273.485 373.679 273.199 376.485C272.912 379.291 272.602 383.847 272.602 390.404C272.602 396.961 272.912 401.516 273.199 404.323C273.489 407.166 275.893 409.04 278.525 409.169C285.583 409.515 290.174 411.014 295.33 413.618C295.367 413.636 295.404 413.655 295.442 413.672V375.942C290.432 373.552 285.629 372.139 278.677 371.798ZM288.873 384.965C289.667 385.354 290.629 385.256 291.096 384.406C291.531 383.616 291.178 382.652 290.406 382.25C290.123 382.104 289.115 381.61 287.457 381.123C285.561 380.567 282.818 380.022 279.35 380.022C278.49 380.022 277.793 380.719 277.793 381.579C277.793 382.439 278.49 383.137 279.35 383.137C282.489 383.137 284.936 383.63 286.58 384.112C287.813 384.473 288.594 384.829 288.873 384.965ZM288.873 394.309C289.667 394.697 290.629 394.6 291.096 393.75C291.531 392.959 291.178 391.996 290.406 391.594C289.473 391.109 288.462 390.762 287.457 390.467C285.561 389.911 282.818 389.366 279.35 389.366C278.49 389.366 277.793 390.063 277.793 390.923C277.793 391.783 278.49 392.48 279.35 392.48C282.489 392.48 284.936 392.973 286.58 393.456C287.813 393.817 288.594 394.173 288.873 394.309ZM288.873 403.653C289.667 404.041 290.629 403.944 291.096 403.094C291.531 402.303 291.178 401.339 290.406 400.938C289.473 400.453 288.462 400.106 287.457 399.811C285.561 399.254 282.818 398.709 279.35 398.709C278.49 398.709 277.793 399.407 277.793 400.267C277.793 401.127 278.49 401.824 279.35 401.824C282.489 401.824 284.936 402.317 286.58 402.799C287.813 403.161 288.594 403.517 288.873 403.653ZM298.668 413.618C298.631 413.636 298.594 413.655 298.556 413.672V375.942C303.566 373.552 308.369 372.139 315.321 371.798C318.112 371.661 320.513 373.679 320.8 376.485C321.086 379.291 321.397 383.847 321.397 390.404C321.397 396.961 321.086 401.516 320.8 404.323C320.509 407.166 318.105 409.04 315.473 409.169C308.415 409.515 303.824 411.014 298.668 413.618ZM306.542 381.123C304.883 381.61 303.875 382.104 303.592 382.25C302.821 382.652 302.467 383.616 302.902 384.406C303.322 385.17 304.273 385.41 305.029 385.014C305.156 384.948 305.98 384.534 307.418 384.112C309.062 383.63 311.51 383.137 314.648 383.137C315.508 383.137 316.206 382.439 316.206 381.579C316.206 380.719 315.508 380.022 314.648 380.022C311.181 380.022 308.437 380.567 306.542 381.123ZM306.542 390.467C304.883 390.953 303.875 391.447 303.592 391.594C302.821 391.998 302.466 392.957 302.902 393.75C303.37 394.6 304.331 394.697 305.126 394.309C305.404 394.173 306.185 393.817 307.418 393.456C309.062 392.973 311.51 392.48 314.648 392.48C315.508 392.48 316.206 391.783 316.206 390.923C316.206 390.063 315.508 389.366 314.648 389.366C311.181 389.366 308.437 389.911 306.542 390.467ZM312.56 400.295C312.665 401.148 312.058 401.926 311.205 402.03C309.156 402.282 307.577 402.719 306.525 403.085C305.736 403.359 305.245 403.593 305.076 403.677C304.3 404.067 303.347 403.903 302.902 403.094C302.474 402.315 302.806 401.356 303.57 400.95C304.187 400.625 304.845 400.371 305.502 400.143C306.74 399.712 308.535 399.22 310.825 398.939C311.679 398.834 312.456 399.441 312.56 400.295Z" clip-rule="evenodd"/><defs><clipPath id="clip0_10560_14256"><rect width="53.333" height="53.333" fill="#fff" transform="translate(169.698 267.333)"/></clipPath></defs></svg>