<svg width="24" height="24" viewBox="0 0 24 24" fill="none" xmlns="http://www.w3.org/2000/svg">
<rect width="24" height="24" rx="8" fill="#FF7F50"/>
<path d="M12 6.02081C12.2417 6.02081 12.4375 6.21669 12.4375 6.45831V6.74998C12.4375 6.9916 12.2417 7.18748 12 7.18748C11.7584 7.18748 11.5625 6.9916 11.5625 6.74998V6.45831C11.5625 6.21669 11.7584 6.02081 12 6.02081Z" fill="white"/>
<path d="M12 8.06248C9.82542 8.06248 8.06254 9.82536 8.06254 12C8.06254 14.1746 9.82542 15.9375 12 15.9375C14.1747 15.9375 15.9375 14.1746 15.9375 12C15.9375 9.82536 14.1747 8.06248 12 8.06248Z" fill="white"/>
<path d="M12.4375 17.25C12.4375 17.0084 12.2417 16.8125 12 16.8125C11.7584 16.8125 11.5625 17.0084 11.5625 17.25V17.5416C11.5625 17.7833 11.7584 17.9791 12 17.9791C12.2417 17.9791 12.4375 17.7833 12.4375 17.5416V17.25Z" fill="white"/>
<path d="M16.8125 12C16.8125 11.7583 17.0084 11.5625 17.25 11.5625H17.5417C17.7833 11.5625 17.9792 11.7583 17.9792 12C17.9792 12.2416 17.7833 12.4375 17.5417 12.4375H17.25C17.0084 12.4375 16.8125 12.2416 16.8125 12Z" fill="white"/>
<path d="M6.45839 11.5625C6.21676 11.5625 6.02088 11.7583 6.02087 11.9999C6.02087 12.2416 6.21674 12.4375 6.45836 12.4375L6.75004 12.4375C6.99166 12.4375 7.18754 12.2416 7.18755 12C7.18756 11.7584 6.99169 11.5625 6.75006 11.5625L6.45839 11.5625Z" fill="white"/>
<path d="M16.2278 7.77208C16.3987 7.94293 16.3987 8.21994 16.2278 8.3908L16.0216 8.59704C15.8507 8.76789 15.5737 8.76789 15.4029 8.59704C15.232 8.42618 15.232 8.14917 15.4029 7.97832L15.6091 7.77208C15.78 7.60123 16.057 7.60123 16.2278 7.77208Z" fill="white"/>
<path d="M8.59722 16.0216C8.76808 15.8508 8.76808 15.5738 8.59722 15.4029C8.42637 15.2321 8.14936 15.2321 7.9785 15.4029L7.77227 15.6092C7.60141 15.78 7.60141 16.057 7.77227 16.2279C7.94312 16.3987 8.22013 16.3987 8.39098 16.2279L8.59722 16.0216Z" fill="white"/>
<path d="M15.4029 15.4029C15.5737 15.2321 15.8507 15.2321 16.0216 15.4029L16.2278 15.6092C16.3987 15.78 16.3987 16.057 16.2278 16.2279C16.057 16.3987 15.78 16.3987 15.6091 16.2279L15.4029 16.0216C15.232 15.8508 15.232 15.5738 15.4029 15.4029Z" fill="white"/>
<path d="M8.39099 7.77207C8.22014 7.60121 7.94313 7.6012 7.77227 7.77205C7.60142 7.9429 7.60141 8.21991 7.77226 8.39077L7.9785 8.59702C8.14934 8.76788 8.42635 8.76789 8.59721 8.59704C8.76807 8.42619 8.76808 8.14918 8.59723 7.97832L8.39099 7.77207Z" fill="white"/>
</svg>
