<svg width="24" height="24" viewBox="0 0 24 24" fill="none" xmlns="http://www.w3.org/2000/svg">
<g clip-path="url(#clip0_60_19619)">
<path fill-rule="evenodd" clip-rule="evenodd" d="M0.739502 12C0.739502 5.78103 5.78096 0.739578 11.9999 0.739578C18.2189 0.739578 23.2603 5.78103 23.2603 12C23.2603 18.219 18.2189 23.2604 11.9999 23.2604C5.78096 23.2604 0.739502 18.219 0.739502 12ZM11.318 12.5383C11.2275 12.4297 11.108 12.2878 10.9619 12.1172C10.6001 11.695 10.0745 11.0967 9.41841 10.3911C8.89176 9.82482 8.00908 9.68945 7.3934 10.2252C7.11338 10.4688 6.80676 10.7717 6.5332 11.1234C6.11537 11.6606 6.21949 12.3799 6.61423 12.8691C7.91402 14.48 9.16924 15.7954 10.0674 16.6808C10.8918 17.4934 12.1919 17.4273 12.9192 16.5224C13.8976 15.3051 15.4612 13.2256 17.5413 10.034C17.8338 9.58514 17.9305 8.96088 17.5747 8.47568C17.2069 7.97413 16.7451 7.62702 16.3447 7.39544C15.6911 7.01733 14.9425 7.32251 14.5484 7.88208C13.4977 9.37387 12.6453 10.604 12.0554 11.4613C11.7605 11.8899 11.5312 12.2253 11.3756 12.4537L11.318 12.5383Z" fill="black"/>
</g>
<defs>
<clipPath id="clip0_60_19619">
<rect width="24" height="24" fill="white"/>
</clipPath>
</defs>
</svg>
