<svg width="24" height="24" viewBox="0 0 24 24" fill="none" xmlns="http://www.w3.org/2000/svg">
<path d="M7.36489 5.64892C6.20586 5.6865 5.24991 5.73444 4.49641 5.78087C3.25185 5.8576 2.26703 6.80754 2.15433 8.04939C2.03227 9.39474 1.9082 11.2783 1.9082 13.3762C1.9082 15.4741 2.03227 17.3576 2.15433 18.7029C2.26703 19.9448 3.25185 20.8947 4.49641 20.9715C6.08994 21.0697 8.58901 21.1745 12.0001 21.1745C15.4112 21.1745 17.9103 21.0697 19.5038 20.9715C20.7484 20.8947 21.7332 19.9448 21.8459 18.7029C21.9679 17.3576 22.092 15.474 22.092 13.3762C22.092 11.2784 21.9679 9.39474 21.8459 8.04939C21.7332 6.80754 20.7484 5.8576 19.5038 5.78087C18.7503 5.73444 17.7944 5.6865 16.6353 5.64892L15.8846 4.10204C15.5583 3.42967 14.9247 2.95988 14.1794 2.90368C13.6235 2.86179 12.8865 2.82554 12.0001 2.82554C11.1137 2.82554 10.3767 2.86179 9.82078 2.90368C9.07553 2.95988 8.44188 3.42967 8.11559 4.10204L7.36489 5.64892Z" stroke="black" stroke-width="2" stroke-linejoin="round"/>
<path d="M16.1282 12.9174C16.1282 15.1976 14.2797 17.046 11.9996 17.046C9.71951 17.046 7.87109 15.1976 7.87109 12.9174C7.87109 10.6373 9.71951 8.78892 11.9996 8.78892C14.2797 8.78892 16.1282 10.6373 16.1282 12.9174Z" stroke="black" stroke-width="2" stroke-linejoin="round"/>
</svg>
