<svg width="24" height="24" viewBox="0 0 24 24" fill="none" xmlns="http://www.w3.org/2000/svg">
<g clip-path="url(#clip0_86_19595)">
<path fill-rule="evenodd" clip-rule="evenodd" d="M16.9385 1.40294C17.3929 0.572127 18.5861 0.572131 19.0405 1.40294L19.9949 3.14791C20.1927 3.50971 20.4902 3.80718 20.852 4.00505L22.5969 4.9594C23.4278 5.41381 23.4278 6.60703 22.5969 7.06143L20.852 8.01578C20.4902 8.21363 20.1927 8.5111 19.9949 8.87292L19.0405 10.6178C18.5861 11.4487 17.3929 11.4487 16.9385 10.6178L15.9841 8.87292C15.7862 8.5111 15.4888 8.21363 15.127 8.01578L13.382 7.06138C12.5512 6.60703 12.5512 5.41381 13.382 4.9594L15.127 4.00505C15.4888 3.80718 15.7862 3.50971 15.9841 3.14791L16.9385 1.40294ZM14.4372 2.74385C14.4631 2.72968 14.488 2.71398 14.5119 2.69686C13.5008 2.6719 12.3466 2.65626 11.0416 2.65626C7.73265 2.65626 5.39322 2.7568 3.8983 2.85487C2.33552 2.9574 1.08671 4.13208 0.94904 5.71444C0.840574 6.96118 0.739502 8.79098 0.739502 11.2813C0.739502 13.7715 0.840573 15.6013 0.949038 16.8481C1.08671 18.4304 2.33552 19.6051 3.8983 19.7076C4.58162 19.7525 5.44137 19.7978 6.4895 19.8339V22.0625C6.4895 23.089 7.69624 23.6401 8.47196 22.9678L12.0079 19.9033C14.8112 19.8861 16.8398 19.7959 18.1849 19.7076C19.7477 19.6051 20.9965 18.4304 21.1341 16.8481C21.2426 15.6013 21.3437 13.7715 21.3437 11.2813C21.3437 10.6292 21.3367 10.0224 21.3245 9.45961C21.2989 9.49176 21.276 9.52626 21.256 9.56268L20.3017 11.3077C19.302 13.1354 16.6769 13.1354 15.6773 11.3077L14.7229 9.56268C14.657 9.44207 14.5578 9.34293 14.4372 9.27695L12.6923 8.32259C10.8644 7.32296 10.8645 4.69785 12.6923 3.69821L14.4372 2.74385Z" fill="black"/>
</g>
<defs>
<clipPath id="clip0_86_19595">
<rect width="24" height="24" fill="white"/>
</clipPath>
</defs>
</svg>
