<svg width="24" height="24" viewBox="0 0 24 24" fill="none" xmlns="http://www.w3.org/2000/svg">
<path d="M20.5795 12.0604C20.5586 14.0881 20.4709 15.6069 20.3795 16.6705C20.2784 17.8489 19.3584 18.7289 18.1784 18.8086C16.9309 18.8929 15.0609 18.9794 12.488 19L9.15022 21.861C8.54958 22.3758 7.62173 21.9491 7.62173 21.158V18.9544C6.30727 18.9165 5.26424 18.8621 4.4722 18.8086C3.29217 18.7289 2.37221 17.8489 2.27105 16.6705C2.16632 15.4508 2.06641 13.6324 2.06641 11.1346C2.06641 8.63668 2.16632 6.81824 2.27105 5.59857C2.37221 4.4202 3.29217 3.54015 4.4722 3.46045C5.90041 3.36397 8.14459 3.26447 11.3253 3.26447C11.4819 3.26447 11.6362 3.26469 11.7883 3.2652" stroke="black" stroke-width="2" stroke-linecap="round" stroke-linejoin="round"/>
<path d="M17.1689 2.15535C17.3446 1.83429 17.8057 1.83429 17.9813 2.15535L18.9034 3.84124C19.1583 4.30731 19.5415 4.69048 20.0075 4.94541L21.6934 5.86744C22.0145 6.04307 22.0145 6.50415 21.6934 6.67978L20.0075 7.60186C19.5415 7.85674 19.1583 8.23995 18.9034 8.70599L17.9813 10.3919C17.8057 10.713 17.3446 10.713 17.1689 10.3919L16.2469 8.70599C15.992 8.23995 15.6088 7.85674 15.1428 7.60186L13.4569 6.67978C13.1358 6.50415 13.1358 6.04307 13.4569 5.86744L15.1428 4.94541C15.6088 4.69048 15.992 4.30731 16.2469 3.84124L17.1689 2.15535Z" stroke="black" stroke-width="2"/>
</svg>
