<svg width="24" height="24" viewBox="0 0 24 24" fill="none" xmlns="http://www.w3.org/2000/svg">
<rect width="24" height="24" rx="8" fill="#8A2BE2"/>
<path fill-rule="evenodd" clip-rule="evenodd" d="M6.64424 6.18882C7.26262 6.16589 8.74699 6.1302 11.9999 6.1302C15.2528 6.1302 16.7372 6.16589 17.3555 6.18882C17.675 6.20066 18.0636 6.37657 18.1253 6.8098C18.1401 6.91313 18.1492 7.03498 18.1492 7.17838C18.1492 7.32178 18.1401 7.44363 18.1253 7.54696C18.0636 7.98019 17.675 8.15609 17.3555 8.16794C16.7371 8.19086 15.2528 8.22656 11.9999 8.22656C8.74699 8.22656 7.26262 8.19086 6.64424 8.16794C6.32481 8.15609 5.9362 7.98019 5.87446 7.54696C5.85973 7.44363 5.85059 7.32178 5.85059 7.17838C5.85059 7.03498 5.85973 6.91313 5.87446 6.8098C5.9362 6.37658 6.32481 6.20066 6.64424 6.18882ZM6.64424 9.40323C7.26262 9.38031 8.74699 9.34461 11.9999 9.34461C15.2528 9.34461 16.7372 9.38031 17.3555 9.40323C17.675 9.41508 18.0636 9.59098 18.1253 10.0242C18.1401 10.1275 18.1492 10.2494 18.1492 10.3928C18.1492 10.5362 18.1401 10.658 18.1253 10.7614C18.0636 11.1946 17.675 11.3705 17.3555 11.3824C16.7371 11.4053 15.2528 11.441 11.9999 11.441C8.74699 11.441 7.26262 11.4053 6.64424 11.3824C6.32481 11.3705 5.9362 11.1946 5.87446 10.7614C5.85973 10.658 5.85059 10.5362 5.85059 10.3928C5.85059 10.2494 5.85973 10.1275 5.87446 10.0242C5.9362 9.59098 6.32481 9.41508 6.64424 9.40323ZM11.9999 12.559C8.74699 12.559 7.26262 12.5947 6.64424 12.6176C6.32481 12.6295 5.9362 12.8054 5.87446 13.2386C5.85973 13.3419 5.85059 13.4638 5.85059 13.6072C5.85059 13.7506 5.85973 13.8725 5.87446 13.9758C5.9362 14.409 6.32481 14.5849 6.64424 14.5968C7.26262 14.6197 8.74699 14.6554 11.9999 14.6554C15.2528 14.6554 16.7371 14.6197 17.3555 14.5968C17.675 14.5849 18.0636 14.409 18.1253 13.9758C18.1401 13.8725 18.1492 13.7506 18.1492 13.6072C18.1492 13.4638 18.1401 13.3419 18.1253 13.2386C18.0636 12.8054 17.675 12.6295 17.3555 12.6176C16.7372 12.5947 15.2528 12.559 11.9999 12.559ZM6.65489 15.821C7.14187 15.7991 8.1213 15.7734 10.0433 15.7734C11.9653 15.7734 12.9447 15.7991 13.4317 15.821C13.8126 15.8381 14.1927 16.0806 14.2264 16.5394C14.2324 16.6217 14.236 16.7153 14.236 16.8216C14.236 16.9279 14.2324 17.0215 14.2264 17.1038C14.1927 17.5626 13.8126 17.8051 13.4317 17.8222C12.9447 17.8442 11.9653 17.8698 10.0433 17.8698C8.1213 17.8698 7.14187 17.8442 6.65489 17.8222C6.27396 17.8051 5.89392 17.5626 5.86022 17.1038C5.85418 17.0215 5.85059 16.9279 5.85059 16.8216C5.85059 16.7153 5.85418 16.6217 5.86022 16.5394C5.89392 16.0806 6.27396 15.8381 6.65489 15.821Z" fill="white"/>
</svg>
