<svg width="24" height="24" viewBox="0 0 24 24" fill="none" xmlns="http://www.w3.org/2000/svg">
<rect width="24" height="24" rx="8" fill="#32CD32"/>
<g clip-path="url(#clip0_86_19776)">
<path fill-rule="evenodd" clip-rule="evenodd" d="M10.2399 5.58003C10.3877 5.56648 10.5567 5.55721 10.7423 5.55721C10.9279 5.55721 11.0969 5.56648 11.2448 5.58004C11.7025 5.622 12.0066 6.02375 11.9698 6.46919C11.9477 6.73675 11.9163 7.00404 11.8851 7.2365C13.5232 7.24306 14.5483 7.26293 15.1073 7.27783C15.4883 7.28798 15.8468 7.53449 15.8918 7.94608C15.9047 8.06447 15.9133 8.20029 15.9133 8.35235C15.9133 8.5044 15.9047 8.64022 15.8918 8.75859C15.8468 9.1702 15.4883 9.41671 15.1072 9.42685L15.0493 9.42836C14.9186 9.41975 14.785 9.41444 14.6542 9.41444C14.3715 9.41444 14.0766 9.43926 13.8238 9.46842C12.899 9.575 12.1993 10.2392 11.9429 11.0522C11.6106 12.1057 11.2248 13.3664 10.8786 14.5094C10.8327 14.4763 10.7872 14.4428 10.7423 14.4089C9.80363 15.1166 8.65905 15.6555 7.27069 15.8858C6.89925 15.9474 6.50633 15.7687 6.3682 15.394C6.28418 15.1661 6.23006 14.9401 6.19511 14.7436C6.1167 14.3029 6.45275 13.9524 6.84879 13.8681C7.74734 13.677 8.5227 13.3288 9.18334 12.8796C8.29431 11.7647 7.70637 10.5205 7.33279 9.44681C6.92581 9.44019 6.6109 9.43309 6.37734 9.42685C5.99629 9.41671 5.63785 9.1702 5.59282 8.75859C5.57987 8.64022 5.57129 8.5044 5.57129 8.35235C5.57129 8.20029 5.57987 8.06447 5.59282 7.94608C5.63785 7.53449 5.99629 7.28798 6.37733 7.27783C6.93765 7.2629 7.9662 7.24297 9.6111 7.23645C9.58047 6.99603 9.54838 6.72419 9.52417 6.47027C9.48177 6.025 9.78108 5.62209 10.2399 5.58003ZM9.66594 9.46844C9.91524 10.1243 10.2713 10.7892 10.7423 11.401C11.2133 10.7892 11.5693 10.1243 11.8186 9.46844C11.4852 9.4697 11.1269 9.4704 10.7423 9.4704C10.3577 9.4704 9.99935 9.4697 9.66594 9.46844ZM15.3885 10.3014C15.1521 10.2742 14.8922 10.253 14.6542 10.253C14.4161 10.253 14.1562 10.2742 13.9198 10.3014C13.3564 10.3664 12.9098 10.7741 12.7426 11.3044C12.1192 13.281 11.3053 15.9937 10.9223 17.2771C10.7799 17.7542 11.0311 18.2924 11.572 18.3423C11.6834 18.3526 11.8047 18.3589 11.9347 18.3589C12.169 18.3589 12.353 18.3384 12.4951 18.3102C12.8093 18.248 12.9834 17.9808 13.0524 17.7173L13.324 16.6818H15.9847L16.2433 17.6688C16.3209 17.9651 16.5228 18.2533 16.8674 18.3148C17.0111 18.3405 17.1916 18.3589 17.4136 18.3589C17.5161 18.3589 17.6127 18.3557 17.7029 18.3502C18.2612 18.3163 18.5372 17.7675 18.3888 17.272C17.9983 15.9677 17.1857 13.2681 16.5658 11.3043C16.3985 10.7741 15.9519 10.3664 15.3885 10.3014ZM14.6701 12.4033C14.7001 12.4033 14.7267 12.4223 14.7363 12.4507L15.4587 14.5854H13.8491L14.5714 12.4507C14.5811 12.4223 14.6077 12.4033 14.6376 12.4033H14.6701Z" fill="white"/>
</g>
<defs>
<clipPath id="clip0_86_19776">
<rect width="14" height="14" fill="white" transform="translate(5 5)"/>
</clipPath>
</defs>
</svg>
