<svg width="24" height="24" viewBox="0 0 24 24" fill="none" xmlns="http://www.w3.org/2000/svg">
<rect width="24" height="24" rx="8" fill="#20B2AA"/>
<path fill-rule="evenodd" clip-rule="evenodd" d="M4.97266 6.48942C4.97266 5.82783 5.50898 5.2915 6.17057 5.2915C6.83216 5.2915 7.36849 5.82783 7.36849 6.48942C7.36849 7.15101 6.83216 7.68734 6.17057 7.68734C5.50898 7.68734 4.97266 7.15101 4.97266 6.48942ZM9.10505 5.35072C9.73145 5.32486 11.0355 5.2915 13.5977 5.2915C16.1598 5.2915 17.4639 5.32486 18.0903 5.35072C18.5206 5.36848 18.9742 5.63434 19.0164 6.16916C19.0238 6.26291 19.0282 6.36916 19.0282 6.48942C19.0282 6.60968 19.0238 6.71593 19.0164 6.80968C18.9742 7.3445 18.5206 7.61035 18.0903 7.62811C17.4639 7.65399 16.1598 7.68734 13.5977 7.68734C11.0355 7.68734 9.73145 7.65399 9.10505 7.62811C8.6747 7.61035 8.22109 7.3445 8.17889 6.80968C8.17148 6.71593 8.1671 6.60969 8.1671 6.48942C8.1671 6.36916 8.17148 6.26291 8.17889 6.16916C8.22109 5.63434 8.6747 5.36848 9.10505 5.35072ZM4.97266 13.8366C4.97266 13.175 5.50898 12.6387 6.17057 12.6387C6.83216 12.6387 7.36849 13.175 7.36849 13.8366C7.36849 14.4982 6.83216 15.0346 6.17057 15.0346C5.50898 15.0346 4.97266 14.4982 4.97266 13.8366ZM4.97266 17.5103C4.97266 16.8487 5.50898 16.3123 6.17057 16.3123C6.83216 16.3123 7.36849 16.8487 7.36849 17.5103C7.36849 18.1719 6.83216 18.7082 6.17057 18.7082C5.50898 18.7082 4.97266 18.1719 4.97266 17.5103ZM6.17057 8.96512C5.50898 8.96512 4.97266 9.50143 4.97266 10.163C4.97266 10.8246 5.50898 11.3609 6.17057 11.3609C6.83216 11.3609 7.36849 10.8246 7.36849 10.163C7.36849 9.50143 6.83216 8.96512 6.17057 8.96512ZM13.5977 8.96512C11.0355 8.96512 9.73145 8.99847 9.10505 9.02434C8.6747 9.0421 8.22109 9.30794 8.17889 9.84279C8.17148 9.93651 8.1671 10.0428 8.1671 10.163C8.1671 10.2833 8.17148 10.3895 8.17889 10.4833C8.22109 11.0181 8.6747 11.284 9.10505 11.3017C9.73145 11.3276 11.0355 11.3609 13.5977 11.3609C16.1598 11.3609 17.4639 11.3276 18.0903 11.3017C18.5206 11.284 18.9742 11.0181 19.0164 10.4833C19.0238 10.3895 19.0282 10.2833 19.0282 10.163C19.0282 10.0428 19.0238 9.93651 19.0164 9.84279C18.9742 9.30794 18.5206 9.0421 18.0903 9.02434C17.4639 8.99847 16.1598 8.96512 13.5977 8.96512ZM13.5977 12.6387C11.0355 12.6387 9.73145 12.6721 9.10505 12.698C8.6747 12.7157 8.22109 12.9816 8.17889 13.5164C8.17148 13.6101 8.1671 13.7164 8.1671 13.8366C8.1671 13.9569 8.17148 14.0632 8.17889 14.1569C8.22109 14.6917 8.6747 14.9576 9.10505 14.9753C9.73145 15.0012 11.0355 15.0346 13.5977 15.0346C16.1598 15.0346 17.4639 15.0012 18.0903 14.9753C18.5206 14.9576 18.9742 14.6917 19.0164 14.1569C19.0238 14.0632 19.0282 13.9569 19.0282 13.8366C19.0282 13.7164 19.0238 13.6101 19.0164 13.5164C18.9742 12.9816 18.5206 12.7157 18.0903 12.698C17.4639 12.6721 16.1598 12.6387 13.5977 12.6387ZM9.10505 16.3716C9.73145 16.3457 11.0355 16.3123 13.5977 16.3123C16.1598 16.3123 17.4639 16.3457 18.0903 16.3716C18.5206 16.3893 18.9742 16.6552 19.0164 17.19C19.0238 17.2837 19.0282 17.39 19.0282 17.5103C19.0282 17.6305 19.0238 17.7368 19.0164 17.8305C18.9742 18.3653 18.5206 18.6312 18.0903 18.6489C17.4639 18.6748 16.1598 18.7082 13.5977 18.7082C11.0355 18.7082 9.73145 18.6748 9.10505 18.6489C8.6747 18.6312 8.22109 18.3653 8.17889 17.8305C8.17148 17.7368 8.1671 17.6305 8.1671 17.5103C8.1671 17.39 8.17148 17.2837 8.17889 17.19C8.22109 16.6552 8.6747 16.3893 9.10505 16.3716Z" fill="white"/>
</svg>
