<svg width="24" height="24" viewBox="0 0 24 24" fill="none" xmlns="http://www.w3.org/2000/svg">
<rect width="24" height="24" rx="8" fill="#FF6347"/>
<g clip-path="url(#clip0_86_19777)">
<path fill-rule="evenodd" clip-rule="evenodd" d="M14.7779 7.99048L15.3196 8.20715L14.9066 8.73815C14.6669 9.04631 14.7224 9.49043 15.0306 9.73011C15.3387 9.96983 15.7829 9.91429 16.0226 9.60615L16.4542 9.05115L16.8859 9.60615C17.1256 9.91429 17.5697 9.96983 17.8778 9.73011C18.186 9.49043 18.2415 9.04631 18.0018 8.73815L17.5889 8.20715L18.1306 7.99048C18.493 7.84549 18.6693 7.4341 18.5243 7.0716C18.3793 6.70913 17.968 6.53284 17.6055 6.67782L17.1611 6.85559V6.34459C17.1611 5.95419 16.8446 5.6377 16.4542 5.6377C16.0638 5.6377 15.7473 5.95419 15.7473 6.34459V6.85554L15.303 6.67782C14.9405 6.53281 14.5291 6.70913 14.3841 7.0716C14.2391 7.4341 14.4154 7.84549 14.7779 7.99048ZM5.42676 9.31353C5.42676 8.84503 5.80653 8.46526 6.27503 8.46526H13.3439C13.8124 8.46526 14.1921 8.84503 14.1921 9.31353V10.5732C14.1921 10.8871 14.0081 11.2149 13.6534 11.2693C13.5611 11.2834 13.4572 11.2928 13.3439 11.2928C13.1891 11.2928 13.0518 11.2753 12.9378 11.2521C12.6525 11.194 12.4809 10.9507 12.4306 10.6988L12.3797 10.4445H10.7991L10.799 16.5238H10.9277C11.2431 16.5238 11.5664 16.7101 11.6197 17.064C11.6362 17.1729 11.6474 17.2997 11.6474 17.4427C11.6474 17.5858 11.6362 17.7125 11.6197 17.8215C11.5664 18.1753 11.2431 18.3617 10.9277 18.3617H8.69117C8.37577 18.3617 8.05254 18.1753 7.99918 17.8215C7.98274 17.7125 7.97154 17.5858 7.97154 17.4427C7.97154 17.2997 7.98274 17.1729 7.99918 17.064C8.05254 16.7101 8.37577 16.5238 8.6912 16.5238H8.81969L8.8198 10.4445H7.23918L7.18834 10.6988C7.13797 10.9507 6.96643 11.194 6.68108 11.2521C6.56709 11.2753 6.42979 11.2928 6.27503 11.2928C6.16171 11.2928 6.05779 11.2834 5.96552 11.2693C5.61082 11.2149 5.42676 10.8871 5.42676 10.5732V9.31353Z" fill="white"/>
</g>
<defs>
<clipPath id="clip0_86_19777">
<rect width="14" height="14" fill="white" transform="translate(5 5)"/>
</clipPath>
</defs>
</svg>
