<svg width="24" height="24" viewBox="0 0 24 24" fill="none" xmlns="http://www.w3.org/2000/svg">
<rect width="24" height="24" rx="8" fill="#4169E1"/>
<g clip-path="url(#clip0_86_19774)">
<path fill-rule="evenodd" clip-rule="evenodd" d="M16.1114 6.15138C15.8461 5.66634 15.1495 5.66634 14.8842 6.15138L14.5629 6.7388C14.2934 7.23167 13.8881 7.63691 13.3953 7.90647L12.8079 8.22775C12.3228 8.49303 12.3228 9.18969 12.8079 9.45498L13.3953 9.77623C13.8881 10.0458 14.2934 10.451 14.5629 10.9439L14.8842 11.5313C15.1495 12.0164 15.8461 12.0164 16.1114 11.5313L16.4327 10.9439C16.7023 10.451 17.1075 10.0458 17.6003 9.77623L18.1878 9.45498C18.6728 9.18969 18.6728 8.49303 18.1878 8.22775L17.6003 7.90647C17.1075 7.63691 16.7023 7.23167 16.4327 6.7388L16.1114 6.15138ZM8.50404 6.18372C9.68865 6.18372 10.396 6.20258 10.8133 6.22257C11.229 6.24247 11.564 6.52238 11.5782 6.96074C11.5802 7.0222 11.5813 7.0894 11.5813 7.16285C11.5813 7.23628 11.5802 7.30351 11.5782 7.36494C11.564 7.8033 11.229 8.08324 10.8133 8.10314C10.396 8.1231 9.68865 8.14196 8.50404 8.14196C7.31943 8.14196 6.61201 8.1231 6.19475 8.10314C5.77909 8.08324 5.44406 7.8033 5.42986 7.36494C5.42788 7.30348 5.42676 7.23628 5.42676 7.16285C5.42676 7.0894 5.42788 7.0222 5.42986 6.96074C5.44406 6.52238 5.77909 6.24247 6.19475 6.22257C6.61204 6.20258 7.3194 6.18372 8.50404 6.18372ZM17.8716 16.3172C17.2273 16.2922 15.6531 16.2548 12.0009 16.2548C8.3488 16.2548 6.77457 16.2922 6.13024 16.3172C5.8308 16.3288 5.51033 16.4851 5.4546 16.8399C5.43771 16.9474 5.42676 17.0774 5.42676 17.2339C5.42676 17.3905 5.43771 17.5205 5.4546 17.6279C5.51033 17.9827 5.8308 18.1391 6.13024 18.1507C6.77457 18.1756 8.3488 18.213 12.0009 18.213C15.6531 18.213 17.2273 18.1756 17.8716 18.1507C18.1711 18.1391 18.4915 17.9827 18.5473 17.6279C18.5642 17.5205 18.5751 17.3905 18.5751 17.2339C18.5751 17.0773 18.5642 16.9474 18.5473 16.8399C18.4915 16.4851 18.1711 16.3288 17.8716 16.3172ZM8.50404 9.54074C9.68865 9.54074 10.396 9.5596 10.8133 9.57956C11.229 9.59949 11.564 9.87942 11.5782 10.3178C11.5802 10.3792 11.5813 10.4464 11.5813 10.5199C11.5813 10.5933 11.5802 10.6605 11.5782 10.722C11.564 11.1603 11.229 11.4403 10.8133 11.4602C10.396 11.4801 9.68865 11.499 8.50404 11.499C7.31943 11.499 6.61201 11.4801 6.19475 11.4602C5.77909 11.4403 5.44406 11.1604 5.42986 10.722C5.42788 10.6605 5.42676 10.5933 5.42676 10.5199C5.42676 10.4464 5.42788 10.3792 5.42986 10.3178C5.44406 9.87942 5.77909 9.59949 6.19475 9.57956C6.61201 9.5596 7.3194 9.54074 8.50404 9.54074ZM17.8716 12.9601C17.2273 12.9352 15.6531 12.8978 12.0009 12.8978C8.3488 12.8978 6.77457 12.9352 6.13024 12.9601C5.8308 12.9718 5.51033 13.1281 5.4546 13.4829C5.43771 13.5903 5.42676 13.7203 5.42676 13.8769C5.42676 14.0335 5.43771 14.1635 5.4546 14.2709C5.51033 14.6257 5.8308 14.782 6.13024 14.7936C6.77457 14.8186 8.3488 14.856 12.0009 14.856C15.6531 14.856 17.2273 14.8186 17.8716 14.7936C18.1711 14.782 18.4915 14.6257 18.5473 14.2709C18.5642 14.1634 18.5751 14.0334 18.5751 13.8769C18.5751 13.7203 18.5642 13.5903 18.5473 13.4829C18.4915 13.1281 18.1711 12.9718 17.8716 12.9601Z" fill="white"/>
</g>
<defs>
<clipPath id="clip0_86_19774">
<rect width="14" height="14" fill="white" transform="translate(5 5)"/>
</clipPath>
</defs>
</svg>
