<svg width="24" height="24" viewBox="0 0 24 24" fill="none" xmlns="http://www.w3.org/2000/svg">
<rect width="24" height="24" rx="8" fill="#00CED1"/>
<path fill-rule="evenodd" clip-rule="evenodd" d="M6.13965 6.2833C6.13965 5.80969 6.52356 5.42578 6.99717 5.42578H14.1431C14.6167 5.42578 15.0006 5.80969 15.0006 6.2833V7.73334C15.0006 7.94605 14.877 8.16368 14.6424 8.22279C14.5126 8.2555 14.3421 8.28415 14.1431 8.28415C13.9132 8.28415 13.7213 8.24591 13.5861 8.20728C13.3968 8.15328 13.2813 7.99119 13.2472 7.82071L13.1684 7.42663H11.5705L11.5704 13.5721H11.8772C12.0904 13.5721 12.3077 13.6968 12.3642 13.9328C12.3981 14.0742 12.4281 14.2658 12.4281 14.5011C12.4281 14.7364 12.3981 14.928 12.3642 15.0694C12.3077 15.3054 12.0904 15.4301 11.8772 15.4301H9.26302C9.04984 15.4301 8.83257 15.3054 8.77602 15.0694C8.74217 14.928 8.71218 14.7364 8.71218 14.5011C8.71218 14.2658 8.74217 14.0742 8.77602 13.9328C8.83257 13.6968 9.04984 13.5721 9.26302 13.5721H9.56956L9.56968 7.42663H7.97183L7.89301 7.82071C7.85891 7.99119 7.74339 8.15328 7.5541 8.20728C7.41893 8.24591 7.22707 8.28415 6.99714 8.28415C6.79813 8.28415 6.62765 8.25547 6.49785 8.22276C6.26325 8.16368 6.13965 7.94605 6.13965 7.73334V6.2833ZM17.6497 14.4958C17.9288 14.7748 17.9288 15.2273 17.6497 15.5063L16.7257 16.4303L17.6497 17.3542C17.9287 17.6333 17.9287 18.0857 17.6497 18.3648C17.3706 18.6439 16.9181 18.6439 16.6391 18.3648L15.7152 17.4409L14.7913 18.3647C14.5123 18.6438 14.0598 18.6438 13.7807 18.3647C13.5017 18.0856 13.5017 17.6332 13.7807 17.3541L14.7045 16.4303L13.7807 15.5064C13.5016 15.2274 13.5016 14.7749 13.7807 14.4958C14.0598 14.2168 14.5122 14.2168 14.7913 14.4958L15.7152 15.4197L16.6391 14.4958C16.9182 14.2167 17.3706 14.2167 17.6497 14.4958Z" fill="white"/>
</svg>
