<svg width="24" height="24" viewBox="0 0 24 24" fill="none" xmlns="http://www.w3.org/2000/svg">
<rect width="24" height="24" rx="8" fill="#FFA500"/>
<g clip-path="url(#clip0_86_19771)">
<path fill-rule="evenodd" clip-rule="evenodd" d="M6.62798 4.65079C7.71529 4.57476 9.47108 4.49316 11.9991 4.49316C14.5272 4.49316 16.283 4.57476 17.3703 4.65079C18.4119 4.72363 19.2423 5.5084 19.3381 6.5614C19.4227 7.49176 19.5061 8.90894 19.5061 10.8821C19.5061 12.8552 19.4227 14.2723 19.3381 15.2027C19.2423 16.2557 18.4119 17.0405 17.3703 17.1133C16.3242 17.1864 14.6593 17.2648 12.2833 17.2706L9.96331 19.2591C9.44527 19.7032 8.64497 19.3351 8.64497 18.6528V17.2162C7.8139 17.1869 7.14529 17.1495 6.62798 17.1133C5.58635 17.0405 4.75596 16.2557 4.66018 15.2027C4.57555 14.2723 4.49219 12.8552 4.49219 10.8821C4.49219 8.90894 4.57555 7.49176 4.66018 6.5614C4.75596 5.5084 5.58635 4.72363 6.62798 4.65079ZM10.7503 14.2702C10.7503 13.7597 11.1642 13.3459 11.6746 13.3459C12.1851 13.3459 12.5989 13.7597 12.5989 14.2702C12.5989 14.7806 12.1851 15.1945 11.6746 15.1945C11.1642 15.1945 10.7503 14.7806 10.7503 14.2702ZM10.7653 6.79419C10.2517 7.12677 9.9391 7.54693 9.84291 7.9309C9.7496 8.30347 9.82394 8.60566 9.96283 8.7971C10.0958 8.98034 10.3185 9.1076 10.6424 9.08997C10.7318 9.08511 10.846 9.04336 11.0166 8.94197C11.3575 8.73941 11.9484 8.39492 12.4191 8.15655C12.6801 8.02437 12.9989 8.1256 13.1358 8.38416C13.2727 8.64268 13.1773 8.96328 12.9213 9.10492C12.823 9.15929 12.721 9.21417 12.6171 9.27014C12.2376 9.47426 11.8316 9.69273 11.4808 9.95426C11.0166 10.3004 10.8319 10.5922 10.8319 10.8337L10.8304 11.9143C10.8301 12.1121 10.9904 12.2726 11.1882 12.2726H11.9469C12.1445 12.2726 12.3047 12.1124 12.3047 11.9148V11.7659C12.3047 11.5682 12.4134 11.3866 12.5876 11.2931C13.3678 10.8743 13.9842 10.5256 14.4146 10.1077C14.8173 9.71672 15.0468 9.27448 15.0468 8.63534C15.0468 8.00645 14.8565 7.40948 14.4823 6.97827C14.1189 6.55946 13.5422 6.25011 12.6616 6.25011C11.9367 6.25011 11.2721 6.46598 10.7653 6.79419Z" fill="white"/>
</g>
<defs>
<clipPath id="clip0_86_19771">
<rect width="16" height="16" fill="white" transform="translate(4 4)"/>
</clipPath>
</defs>
</svg>
