<svg width="24" height="24" viewBox="0 0 24 24" fill="none" xmlns="http://www.w3.org/2000/svg">
<rect width="24" height="24" rx="8" fill="#FF7F50"/>
<g clip-path="url(#clip0_86_19775)">
<path fill-rule="evenodd" clip-rule="evenodd" d="M5.43066 12.0002C5.43066 8.37249 8.37151 5.43164 11.9992 5.43164C15.627 5.43164 18.5678 8.37249 18.5678 12.0002C18.5678 15.6279 15.627 18.5688 11.9992 18.5688C10.8042 18.5688 9.68333 18.2495 8.71769 17.6916C7.98658 17.9616 7.15682 18.2269 6.34116 18.4159C5.87765 18.5233 5.46268 18.1264 5.55563 17.6577C5.72484 16.8045 5.98697 15.9488 6.26648 15.2091C5.73415 14.26 5.43066 13.1654 5.43066 12.0002ZM10.0426 9.48459C10.3514 9.48459 10.6017 9.73487 10.6017 10.0436V10.6026C10.6017 10.9114 10.3514 11.1617 10.0426 11.1617C9.73389 11.1617 9.48362 10.9114 9.48362 10.6026V10.0436C9.48362 9.73487 9.73389 9.48459 10.0426 9.48459ZM9.76299 12.699C9.38674 12.699 9.0398 13.0134 9.12215 13.4219C9.39266 14.7634 10.5777 15.7737 11.9991 15.7737C13.4205 15.7737 14.6056 14.7634 14.8761 13.4219C14.9584 13.0134 14.6115 12.699 14.2352 12.699H9.76299ZM13.3968 10.0436C13.3968 9.73487 13.6471 9.48459 13.9558 9.48459C14.2646 9.48459 14.5149 9.73487 14.5149 10.0436V10.6026C14.5149 10.9114 14.2646 11.1617 13.9558 11.1617C13.6471 11.1617 13.3968 10.9114 13.3968 10.6026V10.0436Z" fill="white"/>
</g>
<defs>
<clipPath id="clip0_86_19775">
<rect width="14" height="14" fill="white" transform="translate(5 5)"/>
</clipPath>
</defs>
</svg>
