<svg width="24" height="24" viewBox="0 0 24 24" fill="none" xmlns="http://www.w3.org/2000/svg">
<path d="M17.2586 4.20833C17.0059 3.28083 16.2089 2.61057 15.2085 2.53863C14.037 2.4544 12.3048 2.375 9.9375 2.375C7.58492 2.375 5.85962 2.45342 4.68846 2.53706C3.51641 2.62077 2.62077 3.51641 2.53706 4.68846C2.45342 5.85962 2.375 7.58492 2.375 9.9375C2.375 12.3049 2.4544 14.037 2.53864 15.2085C2.61056 16.2089 3.28078 17.0058 4.20821 17.2586" stroke="black" stroke-width="2" stroke-linecap="round" stroke-linejoin="round"/>
<path d="M6.66207 8.81344C6.74576 7.64139 7.64139 6.74576 8.81344 6.66207C9.98462 6.57842 11.7099 6.5 14.0625 6.5C16.4151 6.5 18.1404 6.57842 19.3115 6.66207C20.4836 6.74576 21.3792 7.64139 21.4629 8.81344C21.5466 9.98462 21.625 11.7099 21.625 14.0625C21.625 16.4151 21.5466 18.1404 21.4629 19.3116C21.3792 20.4836 20.4836 21.3792 19.3115 21.4629C18.1404 21.5466 16.4151 21.625 14.0625 21.625C11.7099 21.625 9.98462 21.5466 8.81344 21.4629C7.64139 21.3792 6.74576 20.4836 6.66207 19.3116C6.57842 18.1404 6.5 16.4151 6.5 14.0625C6.5 11.7099 6.57842 9.98462 6.66207 8.81344Z" stroke="black" stroke-width="2" stroke-linecap="round" stroke-linejoin="round"/>
<path d="M6.55542 17.2952C8.18017 15.7706 9.32751 14.8946 10.07 14.3994C10.7301 13.9591 11.5386 14.032 12.152 14.5337C12.7657 15.0356 13.7004 15.8508 15.0572 17.1483C15.9694 16.3653 16.6682 15.8472 17.1769 15.5079C17.8371 15.0677 18.6456 15.1406 19.2589 15.6422C19.7759 16.0651 20.5209 16.7104 21.5542 17.6792" stroke="black" stroke-width="2" stroke-linecap="round" stroke-linejoin="round"/>
<path d="M18.4167 11.0833C18.4167 11.8427 17.8012 12.4583 17.0417 12.4583C16.2823 12.4583 15.6667 11.8427 15.6667 11.0833C15.6667 10.3239 16.2823 9.70834 17.0417 9.70834C17.8012 9.70834 18.4167 10.3239 18.4167 11.0833Z" stroke="black" stroke-width="2" stroke-linecap="round" stroke-linejoin="round"/>
</svg>
