<svg width="24" height="24" viewBox="0 0 24 24" fill="none" xmlns="http://www.w3.org/2000/svg">
<g clip-path="url(#clip0_86_19582)">
<path d="M4.83804 4.90228C6.66523 3.05851 9.1994 1.9165 12.0003 1.9165C17.5692 1.9165 22.0837 6.43095 22.0837 11.9998C22.0837 17.5687 17.5692 22.0832 12.0003 22.0832C6.43144 22.0832 1.91699 17.5687 1.91699 11.9998" stroke="black" stroke-width="2" stroke-linecap="round" stroke-linejoin="round"/>
<path d="M12.001 7.4165V11.9998L15.2093 15.2082" stroke="black" stroke-width="2" stroke-linecap="round" stroke-linejoin="round"/>
<path d="M6.23234 6.59068C6.38313 6.82347 6.26828 7.12711 6.00221 7.20544C4.80228 7.55873 3.24595 7.74747 2.44457 7.82717C2.16589 7.8549 1.93686 7.62436 1.96645 7.34583C2.04857 6.57276 2.23887 5.08645 2.59172 3.81114C2.66751 3.53722 2.97828 3.41368 3.2164 3.56883C4.32271 4.28961 5.5164 5.48526 6.23234 6.59068Z" stroke="black" stroke-width="2" stroke-linecap="round" stroke-linejoin="round"/>
</g>
<defs>
<clipPath id="clip0_86_19582">
<rect width="24" height="24" fill="white"/>
</clipPath>
</defs>
</svg>
