<svg width="24" height="24" viewBox="0 0 24 24" fill="none" xmlns="http://www.w3.org/2000/svg">
<rect width="24" height="24" rx="8" fill="#FF6347"/>
<path d="M9.41826 6.27725C7.9297 6.07427 6.60413 7.23134 6.60413 8.73368V15.2692C6.60413 16.9471 8.23606 18.1404 9.83499 17.6317L12.1683 16.8893C13.1971 16.5619 13.8958 15.6064 13.8958 14.5268V13.4427C13.8958 13.3782 13.8436 13.326 13.7791 13.326H10.25C9.52509 13.326 8.93746 12.7384 8.93746 12.0135C8.93746 11.2886 9.52509 10.701 10.25 10.701H13.7791C13.8436 10.701 13.8958 10.6488 13.8958 10.5843V9.05187C13.8958 7.81211 12.98 6.76294 11.7516 6.59543L9.41826 6.27725Z" fill="white"/>
<path d="M14.873 9.96895C15.0282 9.78377 15.3041 9.75947 15.4893 9.91468L17.027 11.2035C17.2725 11.4092 17.3954 11.7038 17.3958 11.9985L17.3958 12L17.3958 12.0014C17.3953 12.296 17.2724 12.5904 17.027 12.7961L15.4894 14.0852C15.3042 14.2405 15.0283 14.2162 14.873 14.0311C14.7178 13.8459 14.7421 13.57 14.9272 13.4147L16.0928 12.4375H10.25C10.0083 12.4375 9.81246 12.2416 9.81246 12C9.81246 11.7584 10.0083 11.5625 10.25 11.5625H16.0932L14.9273 10.5853C14.7421 10.4301 14.7178 10.1541 14.873 9.96895Z" fill="white"/>
</svg>
