<svg width="24" height="24" viewBox="0 0 24 24" fill="none" xmlns="http://www.w3.org/2000/svg">
<path d="M12.0003 1.9165C8.58634 1.9165 6.13788 4.31713 6.06266 7.73032C6.04946 8.32703 6.04199 8.98451 6.04199 9.70817C6.04199 10.4318 6.04946 11.0893 6.06266 11.6861C6.13788 15.0992 8.58634 17.4998 12.0003 17.4998C15.4143 17.4998 17.8628 15.0992 17.938 11.6861C17.9512 11.0893 17.9587 10.4318 17.9587 9.70817C17.9587 8.98451 17.9512 8.32703 17.938 7.73032C17.8628 4.31713 15.4143 1.9165 12.0003 1.9165Z" stroke="black" stroke-width="2" stroke-linejoin="round"/>
<path d="M17.9592 11.9998V11.3123C17.9592 10.6795 18.4722 10.1665 19.105 10.1665H19.563C20.196 10.1665 20.709 10.6797 20.7088 11.3127L20.7087 11.9998C20.7087 16.4248 17.6679 19.4375 13.7056 20.1083C13.6705 20.4537 13.625 20.7974 13.5678 21.1401C13.4807 21.6619 13.0687 22.0506 12.5401 22.0722C12.3763 22.0789 12.187 22.0832 11.9701 22.0832C11.7533 22.0832 11.5639 22.0789 11.4001 22.0722C10.8715 22.0506 10.4598 21.6618 10.3742 21.1397C10.3176 20.7943 10.2723 20.4455 10.2372 20.0982C6.30356 19.4075 3.29245 16.4028 3.29199 11.9998L3.29219 11.312C3.29237 10.6793 3.80532 10.1665 4.43802 10.1665H4.89672C5.52955 10.1665 6.04254 10.6795 6.04254 11.3123V11.9998C6.04199 15.2082 8.82728 17.4998 12.0008 17.4998C15.1744 17.4998 17.9592 15.2082 17.9592 11.9998Z" stroke="black" stroke-width="2" stroke-linejoin="round"/>
</svg>
