<svg width="24" height="24" viewBox="0 0 24 24" fill="none" xmlns="http://www.w3.org/2000/svg">
<path d="M7.875 2.375C7.875 2.375 5.989 2.37502 4.08638 2.49956C3.23077 2.55556 2.55583 3.2304 2.49974 4.086C2.375 5.98887 2.375 7.875 2.375 7.875" stroke="black" stroke-width="2" stroke-linecap="round" stroke-linejoin="round"/>
<path d="M16.125 2.375C16.125 2.375 18.011 2.37502 19.9136 2.49956C20.7692 2.55556 21.4442 3.2304 21.5002 4.086C21.625 5.98887 21.625 7.875 21.625 7.875" stroke="black" stroke-width="2" stroke-linecap="round" stroke-linejoin="round"/>
<path d="M16.125 21.625C16.125 21.625 18.011 21.625 19.9136 21.5004C20.7692 21.4444 21.4442 20.7696 21.5002 19.914C21.625 18.0111 21.625 16.125 21.625 16.125" stroke="black" stroke-width="2" stroke-linecap="round" stroke-linejoin="round"/>
<path d="M7.875 21.625C7.875 21.625 5.989 21.625 4.08638 21.5004C3.23077 21.4444 2.55583 20.7696 2.49974 19.914C2.375 18.0111 2.375 16.125 2.375 16.125" stroke="black" stroke-width="2" stroke-linecap="round" stroke-linejoin="round"/>
<path d="M11.531 6.44111C11.7338 6.07027 12.2664 6.07027 12.4693 6.44111L13.367 8.08249C13.9558 9.15912 14.841 10.0443 15.9176 10.6332L17.559 11.5309C17.9298 11.7337 17.9298 12.2663 17.559 12.4692L15.9176 13.3668C14.841 13.9557 13.9558 14.8409 13.367 15.9175L12.4693 17.5589C12.2664 17.9297 11.7338 17.9297 11.531 17.5589L10.6333 15.9175C10.0444 14.8409 9.15922 13.9557 8.0826 13.3668L6.44121 12.4692C6.07038 12.2663 6.07038 11.7337 6.44121 11.5309L8.0826 10.6332C9.15922 10.0443 10.0444 9.15912 10.6333 8.08249L11.531 6.44111Z" stroke="black" stroke-width="2"/>
</svg>
