<svg width="24" height="24" viewBox="0 0 24 24" fill="none" xmlns="http://www.w3.org/2000/svg">
<path d="M9.6783 2.56305C9.73115 2.45288 9.80737 2.35582 9.91526 2.29855C10.18 2.15808 10.8084 1.91667 12 1.91667C13.1916 1.91667 13.8199 2.15808 14.0847 2.29855C14.1926 2.35582 14.2688 2.45288 14.3217 2.56305C14.4097 2.74674 14.5599 3.06763 14.7224 3.44912C14.9911 4.07982 15.4904 4.58737 16.0837 4.93087C16.6779 5.27487 17.3618 5.44975 18.0433 5.36696C18.4554 5.31691 18.8087 5.28644 19.012 5.27086C19.1338 5.26152 19.256 5.279 19.3595 5.34384C19.6135 5.50287 20.1368 5.92631 20.7326 6.95829C21.3284 7.99027 21.4335 8.65513 21.4442 8.95465C21.4486 9.07675 21.4027 9.19129 21.3337 9.29212C21.2184 9.46051 21.0151 9.75165 20.7655 10.0838C20.3535 10.6319 20.1624 11.3143 20.1624 12C20.1624 12.6856 20.3535 13.3678 20.7654 13.9158C21.0152 14.2482 21.2186 14.5395 21.3339 14.7079C21.4029 14.8088 21.4489 14.9233 21.4445 15.0454C21.4337 15.3449 21.3286 16.0098 20.7328 17.0418C20.137 18.0737 19.6138 18.4972 19.3598 18.6562C19.2562 18.721 19.134 18.7386 19.0122 18.7292C18.8089 18.7136 18.4555 18.6831 18.0434 18.633C17.3618 18.5503 16.6779 18.7251 16.0837 19.0692C15.4904 19.4126 14.9911 19.9202 14.7224 20.5509C14.5599 20.9324 14.4097 21.2532 14.3217 21.4369C14.2688 21.5471 14.1926 21.6442 14.0847 21.7015C13.8199 21.8419 13.1916 22.0833 12 22.0833C10.8084 22.0833 10.18 21.8419 9.91526 21.7015C9.80737 21.6442 9.73115 21.5471 9.6783 21.4369C9.5903 21.2534 9.44029 20.9327 9.27786 20.5515C9.009 19.9206 8.50946 19.4129 7.91592 19.0693C7.32164 18.7252 6.63758 18.5503 5.9559 18.633C5.54439 18.6831 5.19153 18.7134 4.98845 18.729C4.86663 18.7384 4.74445 18.7209 4.6409 18.6561C4.38688 18.497 3.86364 18.0736 3.26783 17.0416C2.67201 16.0096 2.56692 15.3447 2.5562 15.0452C2.55182 14.9232 2.59777 14.8086 2.66677 14.7077C2.78179 14.5397 2.98455 14.2493 3.23358 13.9179C3.64586 13.3693 3.83701 12.6863 3.83701 12C3.83701 11.3136 3.64585 10.6305 3.23351 10.0818C2.9846 9.7505 2.78192 9.46028 2.66694 9.29226C2.59794 9.19143 2.55199 9.07689 2.55636 8.95479C2.56708 8.65527 2.67218 7.99041 3.26799 6.95843C3.86381 5.92644 4.38705 5.50299 4.64107 5.34396C4.74462 5.27912 4.8668 5.26164 4.98861 5.27098C5.19167 5.28655 5.54449 5.31696 5.95599 5.36693C6.63763 5.44969 7.32169 5.27476 7.91592 4.93073C8.50946 4.58712 9.009 4.07941 9.27786 3.44848C9.44029 3.06728 9.5903 2.74664 9.6783 2.56305Z" stroke="black" stroke-width="2" stroke-linejoin="round"/>
<path d="M15.6668 12C15.6668 14.0251 14.0252 15.6667 12.0002 15.6667C9.97511 15.6667 8.3335 14.0251 8.3335 12C8.3335 9.97495 9.97511 8.33334 12.0002 8.33334C14.0252 8.33334 15.6668 9.97495 15.6668 12Z" stroke="black" stroke-width="2" stroke-linejoin="round"/>
</svg>
