<svg width="24" height="24" viewBox="0 0 24 24" fill="none" xmlns="http://www.w3.org/2000/svg">
<path fill-rule="evenodd" clip-rule="evenodd" d="M7.89244 1.21875C8.55402 1.21875 9.09079 1.75508 9.09079 2.41667C9.09079 3.07826 8.55446 3.61458 7.89287 3.61458C7.66896 3.61458 6.02062 3.6147 4.27161 3.72919C3.97694 3.74848 3.74849 3.97687 3.72911 4.27155C3.61468 6.01243 3.61458 7.64576 3.61458 7.89287C3.61458 8.55446 3.07826 9.09079 2.41667 9.09079C1.75508 9.09079 1.21875 8.55446 1.21875 7.89287C1.21875 7.6322 1.21875 5.93528 1.33844 4.1144C1.43667 2.62012 2.62079 1.4363 4.11511 1.33847C5.94405 1.21875 7.6553 1.21875 7.89244 1.21875ZM7.89244 22.7812C8.55402 22.7812 9.09079 22.2449 9.09079 21.5833C9.09079 20.9217 8.55446 20.3854 7.89287 20.3854C7.66896 20.3854 6.02062 20.3853 4.27161 20.2708C3.97694 20.2515 3.74849 20.0231 3.72911 19.7284C3.61468 17.9876 3.61458 16.3542 3.61458 16.1071C3.61458 15.4455 3.07826 14.9092 2.41667 14.9092C1.75508 14.9092 1.21875 15.4455 1.21875 16.1071C1.21875 16.3678 1.21875 18.0647 1.33844 19.8856C1.43667 21.3799 2.62079 22.5637 4.11511 22.6615C5.94405 22.7813 7.6553 22.7812 7.89244 22.7812ZM16.1071 1.21875C16.3443 1.21875 18.0559 1.21875 19.8849 1.33847C21.3792 1.4363 22.5633 2.62012 22.6616 4.1144C22.7813 5.93528 22.7812 7.63153 22.7812 7.8922C22.7812 8.55379 22.2449 9.09079 21.5833 9.09079C20.9217 9.09079 20.3854 8.55446 20.3854 7.89287C20.3854 7.64576 20.3853 6.01243 20.2709 4.27155C20.2515 3.97687 20.0231 3.74848 19.7284 3.72919C17.9794 3.6147 16.331 3.61458 16.1071 3.61458C15.4455 3.61458 14.9092 3.07826 14.9092 2.41667C14.9092 1.75508 15.4455 1.21875 16.1071 1.21875ZM16.1076 22.7812C15.446 22.7812 14.9092 22.2449 14.9092 21.5833C14.9092 20.9217 15.4455 20.3854 16.1071 20.3854C16.331 20.3854 17.9794 20.3853 19.7284 20.2708C20.0231 20.2515 20.2515 20.0231 20.2709 19.7284C20.3853 17.9876 20.3854 16.3542 20.3854 16.1071C20.3854 15.4455 20.9217 14.9092 21.5833 14.9092C22.2449 14.9092 22.7812 15.4455 22.7812 16.1071C22.7812 16.3678 22.7813 18.0647 22.6616 19.8856C22.5633 21.3799 21.3792 22.5637 19.8849 22.6615C18.0559 22.7813 16.3447 22.7812 16.1076 22.7812ZM10.8789 5.84352C11.3636 4.95735 12.6364 4.95734 13.1211 5.84352L14.0595 7.55947C14.6092 8.56447 15.4355 9.39079 16.4405 9.94045L18.1564 10.8789C19.0426 11.3636 19.0426 12.6364 18.1564 13.1211L16.4405 14.0595C15.4355 14.6092 14.6092 15.4355 14.0595 16.4405L13.1211 18.1564C12.6364 19.0426 11.3636 19.0426 10.8789 18.1564L9.94045 16.4405C9.39079 15.4355 8.56447 14.6092 7.55947 14.0595L5.84352 13.1211C4.95735 12.6364 4.95734 11.3636 5.84352 10.8789L7.55947 9.94045C8.56447 9.39079 9.39079 8.56447 9.94045 7.55947L10.8789 5.84352Z" fill="black"/>
</svg>
