<svg width="24" height="24" viewBox="0 0 24 24" fill="none" xmlns="http://www.w3.org/2000/svg">
<path d="M6.5 13.375C5.40598 13.375 4.35677 13.8096 3.58318 14.5832C2.8096 15.3568 2.375 16.406 2.375 17.5C2.375 18.594 2.8096 19.6432 3.58318 20.4168C4.35677 21.1904 5.40598 21.625 6.5 21.625C7.59402 21.625 8.64323 21.1904 9.41682 20.4168C10.1904 19.6432 10.625 18.594 10.625 17.5C10.625 16.406 10.1904 15.3568 9.41682 14.5832C8.64323 13.8096 7.59402 13.375 6.5 13.375Z" stroke="black" stroke-width="2" stroke-linejoin="round"/>
<path d="M17.5 2.375C16.406 2.375 15.3568 2.8096 14.5832 3.58318C13.8096 4.35677 13.375 5.40598 13.375 6.5C13.375 7.59402 13.8096 8.64323 14.5832 9.41682C15.3568 10.1904 16.406 10.625 17.5 10.625C18.594 10.625 19.6432 10.1904 20.4168 9.41682C21.1904 8.64323 21.625 7.59402 21.625 6.5C21.625 5.40598 21.1904 4.35677 20.4168 3.58318C19.6432 2.8096 18.594 2.375 17.5 2.375Z" stroke="black" stroke-width="2" stroke-linejoin="round"/>
<path d="M2.42828 4.21044C2.47716 3.31467 3.08159 2.61503 3.97222 2.50742C4.57966 2.43402 5.40773 2.375 6.5 2.375C7.59225 2.375 8.42032 2.43402 9.0278 2.50742C9.91839 2.61503 10.5228 3.31467 10.5717 4.21044C10.602 4.76511 10.625 5.51176 10.625 6.5C10.625 7.48826 10.602 8.23488 10.5717 8.78956C10.5228 9.68533 9.91839 10.385 9.0278 10.4926C8.42032 10.566 7.59225 10.625 6.5 10.625C5.40773 10.625 4.57967 10.566 3.97222 10.4926C3.08159 10.385 2.47716 9.68533 2.42828 8.78956C2.39801 8.23488 2.375 7.48826 2.375 6.5C2.375 5.51176 2.39801 4.76511 2.42828 4.21044Z" stroke="black" stroke-width="2" stroke-linejoin="round"/>
<path d="M13.4283 15.2104C13.4772 14.3147 14.0816 13.615 14.9722 13.5074C15.5797 13.434 16.4077 13.375 17.5 13.375C18.5923 13.375 19.4203 13.434 20.0278 13.5074C20.9184 13.615 21.5228 14.3147 21.5717 15.2104C21.602 15.7651 21.625 16.5117 21.625 17.5C21.625 18.4883 21.602 19.2349 21.5717 19.7896C21.5228 20.6853 20.9184 21.385 20.0278 21.4926C19.4203 21.566 18.5923 21.625 17.5 21.625C16.4077 21.625 15.5797 21.566 14.9722 21.4926C14.0816 21.385 13.4772 20.6853 13.4283 19.7896C13.398 19.2349 13.375 18.4883 13.375 17.5C13.375 16.5117 13.398 15.7651 13.4283 15.2104Z" stroke="black" stroke-width="2" stroke-linejoin="round"/>
</svg>
