<svg width="24" height="24" viewBox="0 0 24 24" fill="none" xmlns="http://www.w3.org/2000/svg">
<path d="M12 2.25C9.37665 2.25 7.25 4.37665 7.25 7C7.25 9.62335 9.37665 11.75 12 11.75C14.6234 11.75 16.75 9.62335 16.75 7C16.75 4.37665 14.6234 2.25 12 2.25Z" fill="black"/>
<path d="M8.71585 13.25C7.38709 13.25 6.15754 13.9532 5.48374 15.0984L4.82197 16.2233C4.29965 17.111 4.0756 18.1478 4.2895 19.0798C4.51276 20.0525 5.2044 20.8451 6.33631 21.1375C9.49748 21.9542 14.5028 21.9542 17.664 21.1375C18.7959 20.8451 19.4876 20.0525 19.7108 19.0798C19.9247 18.1478 19.7007 17.111 19.1784 16.2233L18.5166 15.0984C17.8428 13.9532 16.6132 13.25 15.2845 13.25H8.71585Z" fill="black"/>
</svg>
